<svg width="137" height="36" viewBox="0 0 137 36" fill="none" xmlns="http://www.w3.org/2000/svg">
<g clip-path="url(#clip0_703_2568)">
<path d="M47.1154 12.5997C46.9919 13.2191 46.8718 13.654 46.8718 13.9637C46.7483 14.6458 46.81 14.8962 46.6282 15.3278L46.2611 16.2603C46.1377 16.6326 45.8941 17.0049 45.6505 17.3147C45.3452 17.8122 45.4069 18.0593 45.1601 18.5568C45.0366 18.7413 44.9749 18.9918 44.6696 19.3015C44.3026 19.7364 44.059 20.0461 43.8739 20.4184C43.5686 20.9786 43.4451 21.4728 43.1398 21.8451L42.3441 23.397C42.1622 23.7067 42.0388 24.0165 41.8536 24.2669C41.61 24.7018 41.4249 25.0115 41.1813 25.1993L40.509 25.7595C40.2654 25.9473 40.0185 26.1318 39.5898 26.3196C39.2228 26.5041 38.8557 26.7545 38.4887 27.1268C38.2451 27.374 37.9983 27.687 37.693 27.9341C37.3876 28.3064 36.8972 28.7413 36.3483 29.1137C35.8578 29.4234 35.3706 29.6738 34.9419 29.7331C34.5749 29.7957 34.1462 30.0428 33.7791 30.2932C33.227 30.6656 32.8015 31.0379 32.5546 31.0379C32.3078 31.0379 31.7589 31.3476 31.21 31.6573C30.6578 31.967 30.0472 32.3394 29.8036 32.402C29.4366 32.402 29.0078 32.4646 28.5174 32.4646C28.2121 32.5272 27.8451 32.5898 27.5398 32.7117C27.1727 32.8369 26.5621 33.0214 25.9482 33.1466C25.4578 33.2092 24.9706 33.3311 24.6036 33.3311L23.1972 33.5782C22.5866 33.7035 21.9727 33.7035 21.6674 33.7035C21.3004 33.7035 20.628 33.7661 19.894 33.7661C19.0982 33.8287 18.3025 33.8287 18.1823 33.8287C17.8153 33.8287 17.2047 34.1384 16.5908 34.4481C16.4674 34.5107 16.3472 34.5733 16.1621 34.5733C15.8567 34.5733 15.4897 34.4481 15.1227 34.3855C14.7557 34.2603 14.3269 34.201 14.0216 34.201L12.9823 34.4481C12.7387 34.5107 12.5535 34.5733 12.1248 34.5733C11.3908 34.4481 11.5727 33.7661 11.0237 33.7661C10.595 33.8287 10.4131 33.8913 10.1663 33.8913C9.91943 33.8913 9.86097 33.8287 9.86097 33.8287C9.92268 33.7661 9.73754 33.7035 9.61737 33.7035C9.06521 33.7035 8.5163 33.7035 8.21099 33.6409C7.90568 33.5782 7.53866 33.4563 7.10992 33.4563H6.86632C6.62272 33.4563 6.37588 33.5189 6.13228 33.6409C5.82697 33.8287 5.58012 33.888 5.33652 33.9506H5.03121C4.78761 33.9506 4.54077 33.888 4.23546 33.8254C3.86843 33.7002 3.62483 33.7002 3.31628 33.6376C2.94925 33.6376 2.64394 33.7002 2.3971 33.7002C2.15025 33.7002 1.96836 33.7628 1.78647 33.7628C1.54288 33.7628 1.29603 33.7002 0.990718 33.5156C0.685408 33.3278 0.256674 33.0807 0.0715384 32.8336C0.00982666 32.771 0.00982666 32.7084 0.00982666 32.6458C0.00982666 32.5206 0.13325 32.3361 0.376849 32.1483H1.60134C2.1535 32.2109 2.76412 32.2109 3.25456 32.2109C3.74501 32.2109 3.98861 32.1483 4.29392 32.1483C4.59923 32.1483 4.96625 32.1483 5.7003 32.2735C5.9439 32.3361 6.12903 32.3361 6.19074 32.3361H6.92479C7.41523 32.3987 7.53541 32.5239 7.90243 32.5239C8.14603 32.5239 8.39288 32.5239 8.69819 32.4613C8.88332 32.3987 9.0035 32.3361 9.12692 32.3361C9.37052 32.3361 9.55566 32.3987 9.79925 32.4613C9.92268 32.4613 10.0429 32.5239 10.1663 32.5239C10.4099 32.5239 10.6567 32.4613 10.962 32.3361C11.3908 32.1516 11.6344 31.9011 11.8812 31.5914C12.1248 31.2191 12.3099 30.7216 12.6153 30.1647C12.8004 29.855 12.9823 29.5453 13.2259 29.2323C13.5312 28.86 13.8365 28.4876 14.0833 28.1153C14.2652 27.8682 14.4504 27.6178 14.5738 27.3707L15.2461 26.0659C15.3695 25.6936 15.5514 25.3212 15.7983 24.9489L16.5323 23.4596C16.7175 22.9621 16.9611 22.5272 17.2047 22.2175C17.51 21.8451 17.51 21.598 17.6334 21.2257C17.7568 20.9786 17.877 20.7282 18.3057 20.3558C18.8579 19.7957 18.8579 19.5486 18.9163 19.1763C18.9781 18.9292 19.0982 18.6161 19.4685 18.0593L20.3877 16.6952C20.6313 16.1977 20.8164 15.888 20.8781 15.5156C20.9398 15.2685 21.1217 14.771 21.3686 14.2735C21.492 13.9637 21.6739 13.5914 21.9207 13.2817C22.1026 12.9094 22.4112 12.5997 22.7165 12.4119C23.0835 12.1021 23.2687 11.7924 23.3888 11.542C23.5122 11.1697 23.5122 10.7974 23.941 10.3624C24.1846 10.1153 24.3697 9.8023 24.5516 9.49258C24.7335 9.05765 24.8569 8.62273 24.9186 8.2504C24.9803 7.69027 25.4091 7.07083 25.8963 6.5733C26.1399 6.32619 26.2633 5.95386 26.3867 5.64085C26.4484 5.33113 26.5718 5.02141 26.8154 4.771C27.1208 4.46128 27.1825 4.08895 27.3676 3.71663C27.491 3.46951 27.6112 3.1565 27.9782 2.90938C28.3452 2.66227 28.407 2.41185 28.407 2.28994C28.3452 2.10543 28.0399 2.04283 27.7963 2.04283C27.6729 2.10543 27.6112 2.10543 27.4293 2.10543C27.2474 2.10543 27.0623 2.10543 26.8772 2.04283C26.1431 1.98022 26.325 1.6705 25.2856 1.6079C25.042 1.6079 24.2463 1.6705 23.941 1.6705C23.4505 1.6705 23.0218 1.73311 22.5963 1.85502C22.4729 1.91762 22.291 1.91762 22.1059 1.91762H21.1867C20.8814 1.98022 20.5144 2.04283 20.2675 2.04283H20.0239C19.6569 2.04283 18.9846 2.28994 18.3122 2.41515C17.7016 2.54035 17.026 2.66226 16.659 2.85007C15.8015 3.2224 15.9867 3.41021 15.3728 3.41021C14.8206 3.41021 14.1483 3.59472 13.6611 4.09225C13.1739 4.58978 12.9888 4.83689 12.2547 5.0247C11.459 5.20922 11.5207 5.58484 10.9685 5.95716C10.7866 6.08236 10.6632 6.26688 10.4781 6.32948C9.86746 6.88961 9.62062 7.07413 9.5589 7.44645C9.3153 8.1911 8.88657 7.75617 8.63972 8.62602C8.5163 8.99834 8.2727 9.24546 8.0291 9.49587C7.84721 9.68368 7.7855 9.8682 7.7855 10.1153C7.7855 10.2405 7.7855 10.3624 7.84721 10.5502C8.27595 11.4827 8.51955 11.6046 9.07171 11.6672C9.56215 11.7298 9.13342 12.4119 9.62386 12.659C10.1143 12.9687 10.0526 13.5288 10.9101 13.7133C11.2154 13.7759 11.4005 13.8978 11.6441 13.9605C12.0728 14.2076 12.4399 14.3954 13.2356 14.3954C14.4601 14.3954 14.4601 14.0231 15.1324 13.8979C15.4995 13.7726 15.5612 13.7726 15.9899 13.5255C16.3569 13.341 16.6005 13.1532 16.7857 12.9061C17.2144 12.2866 17.3963 12.4712 17.9484 12.0362C18.1303 11.911 18.3772 11.8484 18.5006 11.8484C18.6857 11.8484 18.8059 11.911 18.8059 12.0362C18.8059 12.0988 18.8059 12.1614 18.7442 12.2207C18.3772 12.4679 17.9485 12.9028 17.5814 13.3377C17.3378 13.5222 17.091 13.8352 16.8474 14.145C16.6038 14.3921 16.3569 14.6425 15.9899 14.7644L15.1324 15.0115C14.7037 15.196 14.2133 15.3212 13.9697 15.3838L12.7452 15.7562C12.4399 15.8814 12.1346 15.944 11.8877 15.944C11.5824 15.944 11.3356 16.0692 11.1537 16.0692C11.0302 16.0692 10.9101 16.0066 10.9101 15.8221C10.8484 15.575 10.6665 15.575 10.3579 15.575H9.62386C8.95153 15.575 8.58451 15.0148 8.15577 15.0148C8.09406 15.0148 8.03235 15.0774 7.97389 15.0774H7.66858C7.05795 15.0774 6.38237 14.8303 5.95689 14.5799C5.65158 14.3328 5.16113 14.145 4.7324 13.8979C4.4888 13.7133 4.30366 13.4629 4.30366 13.2158C4.30366 12.6557 3.99835 12.4712 3.99835 12.0988C3.99835 11.9736 3.99835 11.8517 4.06006 11.7265C4.12178 11.5387 4.18349 11.4168 4.18349 11.2916C4.18349 11.0445 4.0016 10.9819 3.75475 10.9819C3.32602 10.9819 3.08242 10.9193 3.08242 10.0494C3.08242 9.67709 3.02071 9.36737 3.02071 9.11696C3.02071 8.93245 3.08242 8.80724 3.14413 8.68203C3.26756 8.55683 3.38773 8.43492 3.57287 8.37231C4.0016 8.18451 4.30691 7.75287 4.61222 7.31795C4.85582 7.00823 5.10267 6.69851 5.34627 6.5107C5.58986 6.32619 5.83671 6.01317 6.08031 5.76605C6.38562 5.39373 6.75264 5.08401 7.18138 4.95881C7.91542 4.8336 8.58776 4.39867 9.01649 3.77923C9.44522 3.2191 10.0558 3.59142 10.7899 3.09719C11.1569 2.85007 11.4622 2.72487 11.8292 2.53706C12.258 2.28994 12.6867 2.03953 13.1739 1.85502C13.7261 1.6079 13.7845 1.6079 14.0931 1.6079H14.5835C15.3176 1.6079 15.1357 1.36078 15.8697 1.36078C16.6038 1.36078 16.9708 1.11367 17.7666 1.11367C18.4389 1.11367 18.7442 0.741342 19.1729 0.741342C19.2964 0.741342 19.4165 0.803945 19.6017 0.866548C19.7251 0.929151 19.907 0.991754 20.0304 0.991754C20.274 0.991754 20.4591 0.866548 20.641 0.80724C20.9463 0.682034 21.5602 0.682034 22.0474 0.682034C23.025 0.682034 23.3921 0.619431 23.5155 0.556828C23.6974 0.431623 23.6974 0.372314 24.1261 0.372314C24.3697 0.372314 24.7367 0.372314 25.2889 0.434917C25.5325 0.49752 25.7176 0.49752 25.8995 0.49752C26.3283 0.49752 26.4517 0.372314 27.124 0.372314C27.5527 0.372314 27.9815 0.434917 28.4102 0.556828L29.2677 0.803945C29.3911 0.866548 29.5113 0.866548 29.6347 0.866548C29.7581 0.866548 29.94 0.866548 30.1869 0.803945C30.9209 0.803945 31.106 0.988459 31.7167 0.988459H31.9603C32.5124 0.988459 32.8177 1.17297 33.1847 1.36078C33.4901 1.48599 33.8571 1.6079 34.4092 1.6079C34.9614 1.6079 35.2667 1.6079 35.4486 1.6705C35.7539 1.79571 35.8773 1.98022 36.4879 2.23063L38.2613 3.03788C38.5667 3.16309 38.872 3.3476 39.1188 3.53541C39.5476 3.78253 39.9763 4.09554 40.3433 4.46787L40.9539 5.14991C41.1358 5.27512 41.3827 5.33772 41.7497 5.33772C42.055 5.33772 42.3018 5.46292 42.4837 5.64744C42.789 5.89456 42.9742 6.20757 43.2795 6.45469L44.0135 7.13673C44.2571 7.38385 44.5657 7.57166 44.871 7.69686C45.5433 7.94398 45.7902 8.00658 46.1572 8.62932C46.2806 8.93904 46.5242 9.12685 46.7094 9.37396C46.8328 9.55848 46.953 9.80889 46.953 10.2438V10.5535C46.953 11.5453 47.2583 11.2356 47.2583 11.7331C47.2583 11.9176 47.2583 12.168 47.1348 12.603L47.1154 12.5997ZM41.0579 12.7249L40.6908 11.2982L40.3238 10.1812C39.7717 8.93904 39.8334 9.24876 39.4046 8.4448C39.161 7.94727 38.9142 7.51235 38.6089 7.14002C38.3653 6.8303 38.0567 6.57989 37.6897 6.33278C37.261 6.08566 36.9557 5.83525 36.6503 5.52553C36.345 5.21581 36.0982 4.84348 35.9163 4.40856C35.7312 3.97363 35.4259 3.72652 35.0588 3.60131C34.6301 3.35419 34.0812 3.29159 33.7142 3.22899C33.4089 3.16638 33.162 3.10378 32.9801 3.10378C32.5514 3.22899 32.428 3.53871 32.2461 4.09554L32.0025 4.96539C31.8791 5.21251 31.7589 5.40032 31.4503 5.64744C31.2067 5.83195 31.0216 6.01976 30.8982 6.26688C30.7747 6.5766 30.6546 6.94892 30.4077 7.32124C30.1024 8.00329 29.9173 8.56342 29.3684 8.93574C28.8195 9.30806 29.1248 10.0527 28.5726 10.5502C28.329 10.738 28.0205 11.2949 27.8386 11.855C27.6534 12.2273 27.6534 12.5371 27.5333 12.8468C27.4715 13.1565 27.3481 13.4662 26.9811 13.8385C26.7375 14.0857 26.4289 14.3987 26.2471 14.6458C25.9417 15.0181 25.7566 15.3904 25.6364 15.9506C25.5747 16.3855 25.3928 16.7578 25.146 17.1301C24.8991 17.5025 24.6555 17.8748 24.5938 18.1845C24.4087 18.8039 24.0417 19.3015 23.6746 20.2339C23.431 20.6689 23.3076 20.9786 23.1842 21.2883C22.9991 21.6606 22.8172 21.9703 22.5119 22.2208C22.2066 22.4712 21.7778 23.028 21.4108 23.6474C21.1055 24.2076 20.8586 24.827 20.8002 25.3245C20.8002 25.7595 20.6183 26.1318 20.4332 26.4415C20.1896 26.8764 19.9427 27.3114 19.9427 27.6837C19.9427 28.2438 19.6374 28.8007 19.2704 29.2982C18.9651 29.7331 18.6598 30.1054 18.5363 30.3525C18.3544 30.6623 18.1076 31.0972 18.0459 31.4695C18.0459 31.5321 17.9842 31.654 17.9842 31.7166C17.9842 31.8418 18.0459 31.9637 18.1661 32.089C18.3512 32.2768 18.5948 32.3987 18.9618 32.5239C19.0852 32.5865 19.2671 32.5865 19.4523 32.5865C19.6374 32.5865 19.881 32.5865 20.1246 32.5239C20.7352 32.5239 21.164 32.4613 21.5927 32.3987C22.0214 32.3361 22.3884 32.2735 22.8172 32.2735C23.3693 32.2735 23.9182 32.2735 24.4704 32.1483C24.8374 32.0231 25.1427 31.9011 25.448 31.6507C25.9385 31.2784 26.4257 31.2784 26.8544 31.2784C27.2214 31.2158 27.5885 31.1532 27.8321 30.8435C28.2608 30.4086 28.5661 30.224 29.0566 29.9736L30.4629 29.4135C31.0151 29.1664 31.4406 28.8534 31.8693 28.5436L33.6427 27.1796C33.948 26.9918 34.2533 26.682 34.5619 26.3723C34.8705 26.0626 35.2342 25.6903 35.6012 25.4399C35.9066 25.2553 36.2119 24.8797 36.5204 24.5074C36.8875 24.0099 37.2545 23.5156 37.6215 23.2026C38.0502 22.8929 38.0502 22.5832 38.1737 22.2109C38.2354 21.9637 38.3555 21.7133 38.6641 21.4036C39.0928 21.0939 39.3364 20.4119 39.5833 19.7891C39.7652 19.229 39.8269 18.6721 39.9503 18.3624C40.0737 17.743 40.379 17.3707 40.379 16.626V16.3163C40.379 15.944 40.4407 15.6969 40.5642 15.4464C40.6876 15.1367 40.9312 14.827 41.0546 14.3295C41.1163 14.1417 41.1163 13.9572 41.1163 13.71C41.1163 13.4003 41.1163 13.0906 41.0546 12.7183L41.0579 12.7249Z" fill="#435065"/>
<path d="M92.3305 2.35914C91.84 2.97858 91.473 3.29159 90.9858 4.28336C90.5571 5.27512 90.5571 5.77265 90.1284 6.20757C89.6996 6.7051 89.5762 7.19934 89.1507 7.69687C88.722 8.13179 88.8454 9.06095 88.2315 9.74629C87.6209 10.4283 87.2539 10.8007 87.1305 11.4827C86.9453 12.1647 87.2539 12.3526 86.5783 12.8468C85.906 13.4069 86.1496 14.1516 85.4773 15.2059C84.8049 16.2603 84.5581 16.4481 84.4996 17.4399C84.4379 18.3723 84.3762 18.804 83.8273 19.7364C83.3368 20.6063 83.522 20.7908 83.0932 21.598C82.6028 22.3427 82.0539 23.0247 81.807 23.7067C81.5634 24.3888 81.6251 24.514 81.1347 25.6936C80.706 26.8105 80.6442 26.6853 80.2772 27.4926C79.9102 28.2998 79.7251 28.5469 79.358 29.2916C78.991 30.0988 79.1729 30.5338 78.9293 30.9687C78.8676 31.0939 78.8059 31.1565 78.8059 31.2158C78.8059 31.341 78.9293 31.4003 78.991 31.8353C79.0527 32.3328 79.1144 32.827 80.0304 32.827C81.1314 32.827 81.6836 32.7018 82.1708 32.7018C82.4144 32.7018 82.6612 32.7018 82.8431 32.7644H83.0867C83.4538 32.7644 83.6389 32.6392 84.0059 32.6392C84.1293 32.6392 84.2495 32.6392 84.4346 32.7018C84.6198 32.7644 84.8017 32.7644 84.9868 32.7644H85.5974C85.7793 32.7644 85.9027 32.7644 86.0262 32.8896C86.2698 33.0741 86.3932 33.2619 86.3932 33.4497C86.3932 33.575 86.2698 33.6969 85.9645 33.7595C85.6591 33.8221 85.3538 33.8847 85.0453 33.8847C84.6165 33.8847 84.1261 33.8221 83.392 33.8221C82.4144 33.8221 81.4335 33.8847 80.6995 33.8847H79.842C79.1697 33.8847 78.8026 34.0099 78.2505 34.1944C78.0069 34.3196 77.8217 34.3196 77.6399 34.3196H77.2728C77.1494 34.3196 77.0292 34.3196 76.8441 34.3822C76.6622 34.4448 76.5388 34.4448 76.3537 34.4448C75.9866 34.4448 75.6813 34.3822 75.2526 34.3196C74.7004 34.1944 73.6611 34.3822 73.0505 34.0725C72.8069 34.0099 72.4983 33.9473 72.193 33.9473H70.6632C70.1727 33.9473 69.6238 34.0725 69.1334 34.0725C68.8898 34.0725 68.6429 34.0725 68.3993 33.9473C68.0323 33.7595 67.8472 33.6376 67.8472 33.5124C67.8472 33.3871 68.0908 33.2652 68.4578 33.0774C69.0684 32.8303 69.5589 32.7677 69.9876 32.7677H70.3546C71.027 32.7677 71.6408 32.5832 72.2514 32.1483C72.9238 31.7133 72.8621 30.5964 73.4142 30.1614C73.9047 29.6639 73.9047 28.8567 74.577 28.2372C75.2493 27.6178 75.5547 26.8731 75.8632 26.0659C76.1685 25.196 75.9866 24.4514 76.9643 24.0791C77.9419 23.7068 77.2696 23.0873 77.76 22.2801C78.3122 21.4728 78.9845 20.2306 79.3515 19.2389C79.7186 18.2471 79.9037 17.687 80.3292 17.0675C80.7579 16.4481 80.9398 15.2059 81.3068 14.6458C81.6739 14.0264 81.6121 13.4662 82.1026 12.5964C82.6547 11.6639 83.1419 10.86 83.2654 10.1746C83.3271 9.49258 83.3888 8.93245 83.6941 8.56013C83.9377 8.25041 84.3664 7.94069 84.3664 7.62767C84.3664 7.56507 84.3664 7.50247 84.3047 7.44316C84.243 7.38385 84.1196 7.31795 83.9994 7.31795C83.7558 7.31795 83.509 7.56507 83.3888 8.0626C83.2654 8.74464 83.0218 8.80725 82.593 9.17957C82.1026 9.55189 81.6154 10.3591 81.125 10.6063C80.6962 10.8534 80.3909 11.8484 79.9622 12.1582C79.5334 12.4053 78.6175 13.0906 77.9419 13.7726C77.2663 14.4547 76.5973 15.0148 75.9834 15.6969C75.4312 16.3789 75.0642 17.1862 74.4536 17.4959C73.843 17.8056 73.4759 18.7381 72.9238 18.9852C72.4333 19.2949 72.128 19.9176 71.5174 20.3493C70.9068 20.8468 70.4781 21.1565 69.8642 21.9011C69.312 22.6458 69.0067 23.3278 68.3961 23.7002C67.7855 24.0725 67.0514 25.0642 66.4993 25.4366C66.0088 25.8089 65.7652 26.5535 65.2748 26.9885C64.7226 27.3608 64.112 27.8583 63.9301 28.2932C63.6865 28.7908 63.9301 29.5354 63.5631 29.9077C63.1961 30.2801 63.0109 30.9621 62.2184 31.1499H61.8514C61.2992 31.1499 61.1791 30.9028 60.812 30.6524C60.3216 30.3427 59.6493 30.2175 59.6493 29.5354C59.6493 29.1631 59.5258 28.6656 59.5258 28.2306C59.5258 27.9209 59.5876 27.6705 59.7694 27.5486C60.1365 27.1763 59.8312 26.9885 60.3801 26.4316C60.9907 25.8715 61.7247 25.687 62.0333 24.9423C62.3386 24.1351 62.2152 23.3904 62.7056 22.8929C63.2578 22.3328 63.5631 22.2109 63.6833 21.5881C63.8652 20.9687 64.6609 20.5338 64.7843 19.8517C64.9695 19.1697 65.5801 18.2372 65.6418 17.7397C65.7035 17.1796 65.5801 16.5601 66.1322 16.0033C66.7429 15.3839 66.8046 14.1417 67.1716 13.7067C67.4152 13.4596 67.5386 13.2092 67.5386 13.0247C67.5386 12.8995 67.4769 12.7776 67.4152 12.6524C67.3535 12.5272 67.2918 12.5272 67.2333 12.5272C67.0482 12.5272 66.6812 12.8369 66.4376 13.0873C66.0705 13.4596 65.3982 14.6392 64.9695 14.8237C64.5407 15.0708 63.9301 15.8781 63.3162 16.4382C62.7056 16.9983 61.9716 17.9275 61.6046 18.3624C61.2375 18.7974 60.8088 18.86 59.8312 20.2867C59.279 21.0939 58.912 22.0857 57.996 22.6458C57.1386 23.1433 56.8333 23.7002 56.1609 24.57C55.4886 25.3773 55.1216 25.9967 54.5077 26.3064C53.8938 26.6161 53.2832 27.1137 53.0396 27.6112C52.8577 28.1713 52.1204 28.4184 51.8151 28.9753C51.5098 29.4728 51.2045 29.8451 51.0194 30.3394C50.7758 30.7743 50.0417 31.2092 49.6747 31.5189C49.3077 31.8287 48.7555 31.9539 48.4502 32.7611C48.1449 33.5058 48.2683 33.631 47.7779 34.313C47.3492 34.9951 46.3715 35.6178 45.8811 35.7397C45.8193 35.7397 45.6992 35.8023 45.6375 35.8023C45.3321 35.8023 45.0853 35.6145 44.9034 35.6145C44.8417 35.6145 44.78 35.6145 44.7215 35.6771C44.4162 35.9242 43.9258 35.9868 43.2534 35.9868H42.5811C41.5418 35.9868 41.2364 35.6145 40.5609 35.4267C39.8885 35.3015 39.3364 34.5568 39.2747 34.2471C39.2129 33.9374 38.1736 33.3147 38.1119 32.6326C38.1119 31.888 38.6023 31.5156 38.664 30.8962C38.7875 30.2142 38.7875 29.9638 39.5215 29.7166C40.2555 29.4695 40.4407 28.6623 41.1747 28.6623C41.9088 28.6623 42.1524 28.5371 42.6428 28.2273C43.0715 27.9802 43.562 27.9176 43.9875 27.9176H44.3545C45.2737 28.0428 45.6992 28.2273 46.1896 28.5997C46.313 28.7249 46.4332 28.7842 46.4949 28.7842C46.6184 28.7842 46.7385 28.7216 46.9237 28.7216C47.0471 28.7216 47.1673 28.7216 47.3524 28.7842C47.5343 28.8468 47.6577 28.9094 47.7811 28.9094C48.0864 28.9094 48.3333 28.7216 48.7003 28.7216C48.762 28.7216 48.8237 28.7842 48.9439 28.7842C48.9439 28.7842 49.3109 28.4745 50.2301 28.1647C50.6588 27.9802 51.0259 28.1021 51.5748 27.3575C52.1854 26.6128 52.4322 26.6128 53.1046 26.1153C53.7769 25.6804 53.2897 25.3081 54.2674 24.626C55.245 23.944 55.7354 23.6936 56.4078 22.7018C56.8982 21.9572 57.7524 21.397 58.2429 20.8402C58.7951 20.2208 59.2205 19.5354 59.8344 18.916C60.5684 18.2339 60.9355 17.3641 61.7312 16.8666C62.5887 16.4316 62.4036 15.687 63.261 15.2521C64.0568 14.8171 63.8716 14.2603 64.5472 13.7628C65.2196 13.3278 65.343 12.9555 65.8334 12.3361C66.2622 11.7166 66.7526 11.2817 67.0579 10.5997C67.3632 9.91762 67.9154 9.4827 68.2207 9.11038C68.526 8.67545 68.9547 8.30313 69.2601 7.8056C69.5654 7.24547 69.4419 6.68863 69.8122 6.37891C70.2409 6.06919 70.1175 5.07413 70.6697 4.76441C71.1601 4.45469 70.7931 3.64744 71.1601 3.028C71.5889 2.40856 71.2218 1.3509 71.7123 1.29159C72.0793 1.29159 72.3229 1.4168 72.6315 1.4168C72.7549 1.4168 72.9368 1.4168 73.0602 1.3542C73.6124 1.22899 73.9177 0.856668 74.7719 0.856668H75.1389C75.6911 0.856668 75.9964 0.981874 76.24 1.3542C76.4251 1.66392 76.5453 1.91433 76.5453 2.22405C76.5453 2.47117 76.4836 2.72158 76.3634 3.0313C76.1815 3.90115 76.1198 4.33608 75.5676 4.76771C75.0772 5.26523 75.324 5.94728 74.8336 6.3822C74.2814 6.81713 74.2814 7.37397 73.6091 8.11861C72.9368 8.86326 72.7516 9.05107 72.2027 10.168C71.7123 11.285 71.5304 11.7199 71.1017 12.0296C70.6729 12.3394 70.6729 12.7743 70.1825 13.6441C69.7538 14.4514 69.8155 15.0708 69.0814 15.8781C68.3474 16.7479 68.6527 16.8698 67.9804 17.8023C67.308 18.7348 67.6133 19.229 67.0612 20.0988C66.509 20.9061 66.6324 20.8435 66.4505 21.8353C66.3271 22.7677 66.1452 22.7677 65.7782 23.5717C65.4729 24.1318 64.7389 25.2488 64.7389 25.6211C64.7389 25.7463 64.8006 25.7463 64.9825 25.7463C65.7165 25.6211 65.9601 24.939 66.3888 24.4415C66.8176 24.0066 67.308 23.8814 67.7335 23.3871C68.1622 22.9522 68.3441 22.5799 69.0782 21.8979C69.8122 21.2158 69.6888 20.7183 70.5463 19.9736C71.4654 19.1664 71.7707 18.9819 72.4431 18.2965C73.1154 17.6771 73.5442 16.8072 74.2782 16.1845C75.074 15.6244 76.2984 14.3855 76.9708 13.6409C77.6431 12.8962 78.3772 12.3361 78.6825 11.9638L79.8452 10.659C80.274 10.1614 80.7027 9.54201 81.375 8.85996C82.0474 8.17792 82.1091 7.68039 82.6612 7.18286C83.1517 6.74794 82.9666 6.37561 83.3336 5.81878C83.7006 5.32125 84.4346 5.07413 84.74 4.6392C85.0453 4.14168 85.6591 3.58484 86.0262 2.84019C86.3932 2.03294 86.4549 0.978579 87.0038 0.668859C87.4942 0.359139 88.3485 0.606256 89.024 0.233933C89.3294 0.0494194 89.5145 -0.0131836 89.6964 -0.0131836C89.94 -0.0131836 90.1868 0.112022 90.6156 0.296536C91.473 0.668859 91.84 0.606256 92.2688 0.915976C92.5124 1.10379 92.6975 1.3509 92.6975 1.59802C92.6975 1.84514 92.5741 2.03294 92.3305 2.34266V2.35914Z" fill="#435065"/>
<path d="M136.877 12.5997C136.753 13.2191 136.633 13.654 136.633 13.9637C136.51 14.6458 136.571 14.8962 136.389 15.3278L136.022 16.2603C135.899 16.6326 135.655 17.0049 135.412 17.3147C135.106 17.8122 135.168 18.0593 134.921 18.5568C134.798 18.7413 134.736 18.9918 134.431 19.3015C134.064 19.7364 133.82 20.0461 133.635 20.4184C133.33 20.9786 133.206 21.4728 132.901 21.8451L132.105 23.397C131.923 23.7067 131.8 24.0165 131.615 24.2669C131.371 24.7018 131.186 25.0115 130.943 25.1993L130.27 25.7595C130.027 25.9473 129.78 26.1318 129.351 26.3196C128.984 26.5041 128.617 26.7545 128.25 27.1268C128.006 27.374 127.759 27.687 127.454 27.9341C127.149 28.3064 126.658 28.7413 126.11 29.1137C125.619 29.4234 125.132 29.6738 124.703 29.7331C124.336 29.7957 123.907 30.0428 123.54 30.2932C122.988 30.6656 122.563 31.0379 122.316 31.0379C122.069 31.0379 121.52 31.3476 120.971 31.6573C120.419 31.967 119.808 32.3394 119.565 32.402C119.198 32.402 118.769 32.4646 118.279 32.4646C117.973 32.5272 117.606 32.5898 117.301 32.7117C116.934 32.8369 116.323 33.0214 115.709 33.1466C115.219 33.2092 114.732 33.3311 114.365 33.3311L112.958 33.5782C112.348 33.7035 111.734 33.7035 111.429 33.7035C111.062 33.7035 110.389 33.7661 109.655 33.7661C108.859 33.8287 108.064 33.8287 107.944 33.8287C107.577 33.8287 106.966 34.1384 106.352 34.4481C106.229 34.5107 106.108 34.5733 105.923 34.5733C105.618 34.5733 105.251 34.4481 104.884 34.3855C104.517 34.2603 104.088 34.201 103.783 34.201L102.744 34.4481C102.5 34.5107 102.315 34.5733 101.886 34.5733C101.152 34.4481 101.334 33.7661 100.785 33.7661C100.356 33.8287 100.174 33.8913 99.9275 33.8913C99.6807 33.8913 99.6222 33.8287 99.6222 33.8287C99.6839 33.7661 99.4988 33.7035 99.3786 33.7035C98.8264 33.7035 98.2775 33.7035 97.9722 33.6409C97.6669 33.5782 97.2999 33.4563 96.8711 33.4563H96.6275C96.384 33.4563 96.1371 33.5189 95.8935 33.6409C95.5882 33.8287 95.3413 33.888 95.0978 33.9506H94.7924C94.5488 33.9506 94.302 33.888 93.9967 33.8254C93.6297 33.7002 93.3861 33.7002 93.0775 33.6376C92.7105 33.6376 92.4052 33.7002 92.1583 33.7002C91.9115 33.7002 91.7296 33.7628 91.5477 33.7628C91.3041 33.7628 91.0573 33.7002 90.7519 33.5156C90.4466 33.3278 90.0179 33.0807 89.8328 32.8336C89.771 32.771 89.7711 32.7084 89.7711 32.6458C89.7711 32.5206 89.8945 32.3361 90.1381 32.1483H91.3626C91.9147 32.2109 92.5253 32.2109 93.0158 32.2109C93.5062 32.2109 93.7498 32.1483 94.0551 32.1483C94.3605 32.1483 94.7275 32.1483 95.4615 32.2735C95.7051 32.3361 95.8903 32.3361 95.952 32.3361H96.686C97.1765 32.3987 97.2966 32.5239 97.6637 32.5239C97.9073 32.5239 98.1541 32.5239 98.4594 32.4613C98.6446 32.3987 98.7647 32.3361 98.8881 32.3361C99.1317 32.3361 99.3169 32.3987 99.5605 32.4613C99.6839 32.4613 99.8041 32.5239 99.9275 32.5239C100.171 32.5239 100.418 32.4613 100.723 32.3361C101.152 32.1516 101.396 31.9011 101.642 31.5914C101.886 31.2191 102.071 30.7216 102.376 30.1647C102.562 29.855 102.744 29.5453 102.987 29.2323C103.292 28.86 103.598 28.4876 103.845 28.1153C104.026 27.8682 104.212 27.6178 104.335 27.3707L105.007 26.0659C105.131 25.6936 105.313 25.3212 105.56 24.9489L106.294 23.4596C106.479 22.9621 106.722 22.5272 106.966 22.2175C107.271 21.8451 107.271 21.598 107.395 21.2257C107.518 20.9786 107.638 20.7282 108.067 20.3558C108.619 19.7957 108.619 19.5486 108.678 19.1763C108.739 18.9292 108.859 18.6161 109.23 18.0593L110.149 16.6952C110.393 16.1977 110.578 15.888 110.639 15.5156C110.701 15.2685 110.883 14.771 111.13 14.2735C111.253 13.9637 111.435 13.5914 111.682 13.2817C111.864 12.9094 112.172 12.5997 112.478 12.4119C112.845 12.1021 113.03 11.7924 113.15 11.542C113.273 11.1697 113.273 10.7974 113.702 10.3624C113.946 10.1153 114.131 9.8023 114.313 9.49258C114.495 9.05765 114.618 8.62273 114.68 8.2504C114.742 7.69027 115.17 7.07083 115.657 6.5733C115.901 6.32619 116.025 5.95386 116.148 5.64085C116.21 5.33113 116.333 5.02141 116.577 4.771C116.882 4.46128 116.944 4.08895 117.129 3.71663C117.252 3.46951 117.372 3.1565 117.739 2.90938C118.106 2.66227 118.168 2.41185 118.168 2.28994C118.106 2.10543 117.801 2.04283 117.558 2.04283C117.434 2.10543 117.372 2.10543 117.191 2.10543C117.009 2.10543 116.824 2.10543 116.638 2.04283C115.904 1.98022 116.086 1.6705 115.047 1.6079C114.803 1.6079 114.008 1.6705 113.702 1.6705C113.212 1.6705 112.783 1.73311 112.358 1.85502C112.234 1.91762 112.052 1.91762 111.867 1.91762H110.948C110.643 1.98022 110.276 2.04283 110.029 2.04283H109.785C109.418 2.04283 108.746 2.28994 108.073 2.41515C107.463 2.54035 106.787 2.66226 106.42 2.85007C105.563 3.2224 105.748 3.41021 105.134 3.41021C104.582 3.41021 103.91 3.59472 103.422 4.09225C102.935 4.58978 102.75 4.83689 102.016 5.0247C101.22 5.20922 101.282 5.58484 100.73 5.95716C100.548 6.08236 100.424 6.26688 100.239 6.32948C99.6287 6.88961 99.3818 7.07413 99.3201 7.44645C99.0765 8.1911 98.6478 7.75617 98.4009 8.62602C98.2775 8.99834 98.0339 9.24546 97.7903 9.49587C97.6084 9.68368 97.5467 9.8682 97.5467 10.1153C97.5467 10.2405 97.5467 10.3624 97.6084 10.5502C98.0372 11.4827 98.2808 11.6046 98.8329 11.6672C99.3234 11.7298 98.8946 12.4119 99.3851 12.659C99.8755 12.9687 99.8138 13.5288 100.671 13.7133C100.977 13.7759 101.162 13.8978 101.405 13.9605C101.834 14.2076 102.201 14.3954 102.997 14.3954C104.221 14.3954 104.221 14.0231 104.894 13.8979C105.261 13.7726 105.322 13.7726 105.751 13.5255C106.118 13.341 106.362 13.1532 106.547 12.9061C106.976 12.2866 107.158 12.4712 107.71 12.0362C107.892 11.911 108.138 11.8484 108.262 11.8484C108.447 11.8484 108.567 11.911 108.567 12.0362C108.567 12.0988 108.567 12.1614 108.505 12.2207C108.138 12.4679 107.71 12.9028 107.343 13.3377C107.099 13.5222 106.852 13.8352 106.609 14.145C106.365 14.3921 106.118 14.6425 105.751 14.7644L104.894 15.0115C104.465 15.196 103.974 15.3212 103.731 15.3838L102.506 15.7562C102.201 15.8814 101.896 15.944 101.649 15.944C101.344 15.944 101.097 16.0692 100.915 16.0692C100.791 16.0692 100.671 16.0066 100.671 15.8221C100.61 15.575 100.428 15.575 100.119 15.575H99.3851C98.7128 15.575 98.3457 15.0148 97.917 15.0148C97.8553 15.0148 97.7936 15.0774 97.7351 15.0774H97.4298C96.8192 15.0774 96.1436 14.8303 95.7181 14.5799C95.4128 14.3328 94.9224 14.145 94.4936 13.8979C94.25 13.7133 94.0649 13.4629 94.0649 13.2158C94.0649 12.6557 93.7596 12.4712 93.7596 12.0988C93.7596 11.9736 93.7596 11.8517 93.8213 11.7265C93.883 11.5387 93.9447 11.4168 93.9447 11.2916C93.9447 11.0445 93.7628 10.9819 93.516 10.9819C93.0872 10.9819 92.8436 10.9193 92.8436 10.0494C92.8436 9.67709 92.7819 9.36737 92.7819 9.11696C92.7819 8.93245 92.8436 8.80724 92.9054 8.68203C93.0288 8.55683 93.149 8.43492 93.3341 8.37231C93.7628 8.18451 94.0681 7.75287 94.3734 7.31795C94.617 7.00823 94.8639 6.69851 95.1075 6.5107C95.3511 6.32619 95.5979 6.01317 95.8415 5.76605C96.1468 5.39373 96.5139 5.08401 96.9426 4.95881C97.6766 4.8336 98.349 4.39867 98.7777 3.77923C99.2064 3.2191 99.8171 3.59142 100.551 3.09719C100.918 2.85007 101.223 2.72487 101.59 2.53706C102.019 2.28994 102.448 2.03953 102.935 1.85502C103.487 1.6079 103.546 1.6079 103.854 1.6079H104.345C105.079 1.6079 104.897 1.36078 105.631 1.36078C106.365 1.36078 106.732 1.11367 107.528 1.11367C108.2 1.11367 108.505 0.741342 108.934 0.741342C109.058 0.741342 109.178 0.803945 109.363 0.866548C109.486 0.929151 109.668 0.991754 109.792 0.991754C110.035 0.991754 110.22 0.866548 110.402 0.80724C110.708 0.682034 111.321 0.682034 111.809 0.682034C112.786 0.682034 113.153 0.619431 113.277 0.556828C113.459 0.431623 113.459 0.372314 113.887 0.372314C114.131 0.372314 114.498 0.372314 115.05 0.434917C115.294 0.49752 115.479 0.49752 115.661 0.49752C116.089 0.49752 116.213 0.372314 116.885 0.372314C117.314 0.372314 117.743 0.434917 118.171 0.556828L119.029 0.803945C119.152 0.866548 119.273 0.866548 119.396 0.866548C119.519 0.866548 119.701 0.866548 119.948 0.803945C120.682 0.803945 120.867 0.988459 121.478 0.988459H121.721C122.274 0.988459 122.579 1.17297 122.946 1.36078C123.251 1.48599 123.618 1.6079 124.17 1.6079C124.723 1.6079 125.028 1.6079 125.21 1.6705C125.515 1.79571 125.639 1.98022 126.249 2.23063L128.023 3.03788C128.328 3.16309 128.633 3.3476 128.88 3.53541C129.309 3.78253 129.738 4.09554 130.105 4.46787L130.715 5.14991C130.897 5.27512 131.144 5.33772 131.511 5.33772C131.816 5.33772 132.063 5.46292 132.245 5.64744C132.55 5.89456 132.735 6.20757 133.041 6.45469L133.775 7.13673C134.018 7.38385 134.327 7.57166 134.632 7.69686C135.305 7.94398 135.551 8.00658 135.918 8.62932C136.042 8.93904 136.285 9.12685 136.471 9.37396C136.594 9.55848 136.714 9.80889 136.714 10.2438V10.5535C136.714 11.5453 137.019 11.2356 137.019 11.7331C137.019 11.9176 137.019 12.168 136.896 12.603L136.877 12.5997ZM130.819 12.7249L130.452 11.2982L130.085 10.1812C129.533 8.93904 129.595 9.24876 129.166 8.4448C128.922 7.94727 128.675 7.51235 128.37 7.14002C128.127 6.8303 127.818 6.57989 127.451 6.33278C127.022 6.08566 126.717 5.83525 126.412 5.52553C126.106 5.21581 125.859 4.84348 125.678 4.40856C125.492 3.97363 125.187 3.72652 124.82 3.60131C124.391 3.35419 123.842 3.29159 123.475 3.22899C123.17 3.16638 122.923 3.10378 122.741 3.10378C122.313 3.22899 122.189 3.53871 122.007 4.09554L121.764 4.96539C121.64 5.21251 121.52 5.40032 121.212 5.64744C120.968 5.83195 120.783 6.01976 120.659 6.26688C120.536 6.5766 120.416 6.94892 120.169 7.32124C119.864 8.00329 119.678 8.56342 119.13 8.93574C118.581 9.30806 118.886 10.0527 118.334 10.5502C118.09 10.738 117.782 11.2949 117.6 11.855C117.415 12.2273 117.415 12.5371 117.294 12.8468C117.233 13.1565 117.109 13.4662 116.742 13.8385C116.499 14.0857 116.19 14.3987 116.008 14.6458C115.703 15.0181 115.518 15.3904 115.398 15.9506C115.336 16.3855 115.154 16.7578 114.907 17.1301C114.66 17.5025 114.417 17.8748 114.355 18.1845C114.17 18.8039 113.803 19.3015 113.436 20.2339C113.192 20.6689 113.069 20.9786 112.945 21.2883C112.76 21.6606 112.578 21.9703 112.273 22.2208C111.968 22.4712 111.539 23.028 111.172 23.6474C110.867 24.2076 110.62 24.827 110.561 25.3245C110.561 25.7595 110.38 26.1318 110.194 26.4415C109.951 26.8764 109.704 27.3114 109.704 27.6837C109.704 28.2438 109.399 28.8007 109.032 29.2982C108.726 29.7331 108.421 30.1054 108.298 30.3525C108.116 30.6623 107.869 31.0972 107.807 31.4695C107.807 31.5321 107.745 31.654 107.745 31.7166C107.745 31.8418 107.807 31.9637 107.927 32.089C108.112 32.2768 108.356 32.3987 108.723 32.5239C108.846 32.5865 109.028 32.5865 109.213 32.5865C109.399 32.5865 109.642 32.5865 109.886 32.5239C110.496 32.5239 110.925 32.4613 111.354 32.3987C111.783 32.3361 112.15 32.2735 112.578 32.2735C113.131 32.2735 113.679 32.2735 114.232 32.1483C114.599 32.0231 114.904 31.9011 115.209 31.6507C115.7 31.2784 116.187 31.2784 116.616 31.2784C116.983 31.2158 117.35 31.1532 117.593 30.8435C118.022 30.4086 118.327 30.224 118.818 29.9736L120.224 29.4135C120.776 29.1664 121.202 28.8534 121.631 28.5436L123.404 27.1796C123.709 26.9918 124.015 26.682 124.323 26.3723C124.632 26.0626 124.995 25.6903 125.362 25.4399C125.668 25.2553 125.973 24.8797 126.282 24.5074C126.649 24.0099 127.016 23.5156 127.383 23.2026C127.811 22.8929 127.811 22.5832 127.935 22.2109C127.997 21.9637 128.117 21.7133 128.425 21.4036C128.854 21.0939 129.098 20.4119 129.345 19.7891C129.526 19.229 129.588 18.6721 129.712 18.3624C129.835 17.743 130.14 17.3707 130.14 16.626V16.3163C130.14 15.944 130.202 15.6969 130.325 15.4464C130.449 15.1367 130.692 14.827 130.816 14.3295C130.878 14.1417 130.878 13.9572 130.878 13.71C130.878 13.4003 130.878 13.0906 130.816 12.7183L130.819 12.7249Z" fill="#435065"/>
</g>
<defs>
<clipPath id="clip0_703_2568">
<rect width="137" height="36" fill="white"/>
</clipPath>
</defs>
</svg>
