<svg width="226" height="40" viewBox="0 0 226 40" fill="none" xmlns="http://www.w3.org/2000/svg">
<g clip-path="url(#clip0_703_3070)">
<path d="M33.7506 8.49295C33.6616 8.91139 33.5725 9.2056 33.5725 9.41482C33.4835 9.87249 33.5315 10.0425 33.3945 10.3367L33.1342 10.9643C33.0452 11.2128 32.874 11.4678 32.6959 11.677C32.4767 12.0104 32.5178 12.1804 32.3466 12.5139C32.2576 12.6381 32.2165 12.8081 31.9973 13.0173C31.737 13.3115 31.559 13.5207 31.4288 13.7692C31.2097 14.1484 31.1206 14.4818 30.9015 14.7303L30.333 15.7764C30.2029 15.9856 30.1138 16.1948 29.9837 16.3648C29.8056 16.659 29.6755 16.8682 29.5043 16.9925L29.0249 17.3717C28.8468 17.4959 28.6756 17.6201 28.3674 17.7509C28.1071 17.8751 27.84 18.0451 27.5798 18.2935C27.4017 18.4635 27.2305 18.6727 27.0113 18.8362C26.7921 19.0846 26.4428 19.3789 26.0456 19.6338C25.6963 19.8431 25.347 20.0131 25.0388 20.0523C24.7786 20.0915 24.4704 20.2615 24.2033 20.4315C23.806 20.6799 23.5047 20.9349 23.3266 20.9349C23.1485 20.9349 22.7581 21.1441 22.3609 21.3534C21.9637 21.5626 21.5253 21.811 21.3541 21.8568C21.0939 21.8568 20.7857 21.896 20.4364 21.896C20.2172 21.9353 19.9569 21.981 19.7378 22.066C19.4775 22.151 19.0392 22.2752 18.6009 22.3602C18.2516 22.3995 17.9023 22.4845 17.6352 22.4845L16.6284 22.6544C16.19 22.7394 15.7517 22.7394 15.5325 22.7394C15.2723 22.7394 14.786 22.7787 14.2586 22.7787C13.6902 22.8179 13.1217 22.8179 13.0327 22.8179C12.7724 22.8179 12.3341 23.0271 11.8958 23.2363C11.8067 23.2756 11.7177 23.3213 11.5876 23.3213C11.3684 23.3213 11.1082 23.2363 10.841 23.1971C10.5808 23.1121 10.2726 23.0729 10.0534 23.0729L9.3069 23.2429C9.12882 23.2821 8.99869 23.3279 8.69049 23.3279C8.16313 23.2429 8.29326 22.7852 7.90287 22.7852C7.59467 22.8244 7.46454 22.8702 7.28647 22.8702C7.1084 22.8702 7.06731 22.831 7.06731 22.831C7.1084 22.7917 6.97827 22.746 6.88923 22.746C6.492 22.746 6.10161 22.746 5.88245 22.7067C5.66328 22.6675 5.40302 22.5825 5.09482 22.5825H4.91675C4.73868 22.5825 4.56746 22.6218 4.38939 22.7067C4.17022 22.831 3.99215 22.8767 3.82093 22.916H3.60176C3.42369 22.916 3.25247 22.8767 3.0333 22.831C2.77305 22.746 2.59497 22.746 2.37581 22.7067C2.11555 22.7067 1.89639 22.746 1.71832 22.746C1.54024 22.746 1.41011 22.7852 1.27999 22.7852C1.10191 22.7852 0.930692 22.746 0.711527 22.6152C0.492362 22.491 0.184162 22.321 0.0540328 22.1575C0.0129395 22.1183 0.0129395 22.0726 0.0129395 22.0333C0.0129395 21.9483 0.101975 21.8241 0.273198 21.6999H1.13616C1.5334 21.7391 1.97172 21.7391 2.32102 21.7391C2.67031 21.7391 2.84838 21.6999 3.06755 21.6999C3.28671 21.6999 3.54697 21.6999 4.07434 21.7849C4.25241 21.8241 4.38254 21.8241 4.42363 21.8241H4.951C5.30029 21.8633 5.38933 21.9483 5.64958 21.9483C5.82765 21.9483 5.99888 21.9483 6.21804 21.9091C6.34817 21.8699 6.43721 21.8241 6.52624 21.8241C6.70431 21.8241 6.83444 21.8633 7.00566 21.9091C7.0947 21.9091 7.18374 21.9483 7.26592 21.9483C7.44399 21.9483 7.61522 21.9091 7.83438 21.8241C8.14258 21.6999 8.3138 21.5299 8.49188 21.3207C8.66995 21.0722 8.80008 20.7322 9.01924 20.3596C9.14937 20.1504 9.2795 19.9411 9.45757 19.7319C9.67674 19.4835 9.8959 19.2285 10.074 18.98C10.2041 18.81 10.3342 18.6466 10.4233 18.4766L10.9027 17.6005C10.9917 17.3521 11.1219 17.0971 11.2999 16.8486L11.8273 15.8418C11.9574 15.5083 12.1355 15.2141 12.3067 15.0049C12.5259 14.7564 12.5259 14.5864 12.6149 14.338C12.7039 14.168 12.793 14.0046 13.0943 13.7496C13.4916 13.3704 13.4916 13.2069 13.5327 12.9519C13.5738 12.7819 13.6628 12.5727 13.9299 12.2L14.5874 11.2782C14.7655 10.9447 14.8956 10.7355 14.9367 10.4805C14.9778 10.3105 15.1148 9.9771 15.286 9.64365C15.375 9.43444 15.5051 9.18599 15.6832 8.97677C15.8133 8.72832 16.0325 8.5191 16.2517 8.38834C16.5119 8.17912 16.6489 7.96991 16.7311 7.79992C16.8201 7.55147 16.8201 7.29648 17.1283 7.00227C17.3064 6.83228 17.4365 6.62306 17.5667 6.41384C17.6968 6.11963 17.7858 5.82541 17.8269 5.57697C17.868 5.19776 18.1762 4.77932 18.5255 4.44588C18.7036 4.27589 18.7858 4.02744 18.8748 3.81822C18.9159 3.609 19.0049 3.39978 19.183 3.22979C19.4022 3.02058 19.4433 2.77213 19.5802 2.51714C19.6693 2.34715 19.7583 2.13793 20.0186 1.97448C20.2788 1.81103 20.3268 1.64104 20.3268 1.55604C20.2857 1.43182 20.0665 1.38605 19.8884 1.38605C19.7994 1.42528 19.7583 1.42528 19.6282 1.42528C19.4981 1.42528 19.3679 1.42528 19.2309 1.38605C18.7036 1.34683 18.8337 1.13761 18.094 1.09184C17.916 1.09184 17.3475 1.13107 17.1283 1.13107C16.779 1.13107 16.4708 1.1703 16.1626 1.25529C16.0736 1.29452 15.9435 1.29452 15.8133 1.29452H15.1559C14.9367 1.33375 14.6764 1.37952 14.4984 1.37952H14.3203C14.06 1.37952 13.5738 1.54951 13.0943 1.62796C12.656 1.71296 12.1766 1.79795 11.9095 1.92218C11.2931 2.17062 11.4301 2.30139 10.9917 2.30139C10.5945 2.30139 10.1151 2.42561 9.76577 2.75905C9.41648 3.09249 9.28635 3.26248 8.75898 3.38671C8.19053 3.51093 8.23162 3.76592 7.84123 4.01436C7.7111 4.09936 7.62207 4.22358 7.49194 4.26281C7.05361 4.64202 6.87554 4.76624 6.83444 5.01469C6.65637 5.51812 6.35502 5.22391 6.17695 5.81234C6.08791 6.06078 5.91669 6.23077 5.73862 6.40076C5.60849 6.52499 5.56055 6.64921 5.56055 6.8192C5.56055 6.9042 5.56055 6.98919 5.60164 7.11342C5.90984 7.74107 6.08106 7.82607 6.4783 7.8653C6.82759 7.90452 6.51939 8.36873 6.87554 8.53218C7.22483 8.7414 7.18374 9.12061 7.79329 9.24483C8.01245 9.28406 8.14258 9.36905 8.32065 9.41482C8.62885 9.58481 8.88911 9.70904 9.45757 9.70904C10.3342 9.70904 10.3342 9.46059 10.8137 9.37559C11.0739 9.2906 11.1219 9.2906 11.4301 9.12715C11.6903 9.00292 11.8684 8.8787 11.9985 8.70871C12.3067 8.29027 12.4368 8.4145 12.8341 8.12028C12.9642 8.03529 13.1423 7.99606 13.2313 7.99606C13.3614 7.99606 13.4505 8.03529 13.4505 8.12028C13.4505 8.15951 13.4505 8.20528 13.4094 8.2445C13.1491 8.41449 12.8409 8.70217 12.5738 8.99638C12.3957 9.12061 12.2245 9.32983 12.0465 9.53905C11.8684 9.70904 11.6972 9.87249 11.4301 9.95748L10.8137 10.1275C10.5055 10.2517 10.1562 10.3367 9.97809 10.3759L9.10143 10.6244C8.88226 10.7094 8.6631 10.7486 8.48503 10.7486C8.26586 10.7486 8.08779 10.8336 7.95766 10.8336C7.86863 10.8336 7.77959 10.7944 7.77959 10.6636C7.7385 10.4936 7.60152 10.4936 7.38235 10.4936H6.85499C6.37557 10.4936 6.10846 10.1144 5.80026 10.1144C5.75917 10.1144 5.71122 10.1536 5.67013 10.1536H5.45097C5.01264 10.1536 4.53321 9.98364 4.22501 9.82018C4.00585 9.65019 3.65655 9.52597 3.34835 9.36252C3.17028 9.23829 3.04015 9.0683 3.04015 8.90485C3.04015 8.52564 2.82099 8.40142 2.82099 8.15297C2.82099 8.06798 2.82099 7.98298 2.86208 7.90452C2.90317 7.7803 2.95112 7.69531 2.95112 7.61031C2.95112 7.44032 2.82099 7.40109 2.64292 7.40109C2.33472 7.40109 2.16349 7.36186 2.16349 6.77344C2.16349 6.52499 2.1224 6.31577 2.1224 6.14578C2.1224 6.02156 2.16349 5.93656 2.21144 5.85157C2.30047 5.76657 2.38951 5.68158 2.51964 5.64235C2.82784 5.51812 3.047 5.22391 3.26617 4.9297C3.44424 4.72048 3.61546 4.51126 3.79353 4.38703C3.9716 4.26281 4.14283 4.05359 4.3209 3.8836C4.54006 3.63516 4.80032 3.42594 5.10852 3.34094C5.63589 3.25595 6.11531 2.96173 6.42351 2.5433C6.73171 2.16409 7.17004 2.41907 7.6974 2.08563C7.95766 1.91564 8.17683 1.83718 8.44393 1.70642C8.75213 1.53643 9.06034 1.37298 9.40963 1.24875C9.80686 1.07876 9.84796 1.07876 10.0671 1.07876H10.4164C10.9438 1.07876 10.8137 0.908774 11.3342 0.908774C11.8547 0.908774 12.1218 0.738784 12.6903 0.738784C13.1697 0.738784 13.3888 0.490337 13.697 0.490337C13.7861 0.490337 13.8751 0.529565 14.0052 0.575332C14.0943 0.61456 14.2244 0.660327 14.3134 0.660327C14.4915 0.660327 14.6216 0.575332 14.7518 0.536103C14.9709 0.451108 15.4093 0.451108 15.7586 0.451108C16.4571 0.451108 16.7243 0.41188 16.8133 0.366113C16.9434 0.281118 16.9434 0.24189 17.2516 0.24189C17.4297 0.24189 17.6899 0.24189 18.0872 0.281118C18.2653 0.320347 18.3954 0.320347 18.5255 0.320347C18.8337 0.320347 18.9228 0.235352 19.4022 0.235352C19.7104 0.235352 20.0186 0.27458 20.3199 0.359575L20.9363 0.529565C21.0254 0.568794 21.1144 0.568794 21.1966 0.568794C21.2788 0.568794 21.4157 0.568794 21.5938 0.529565C22.1212 0.529565 22.2513 0.653789 22.6896 0.653789H22.8677C23.265 0.653789 23.4841 0.778013 23.7444 0.902236C23.9635 0.987231 24.2238 1.07223 24.621 1.07223C25.0183 1.07223 25.2374 1.07223 25.3676 1.11145C25.5867 1.19645 25.6758 1.32067 26.1141 1.49066L27.388 2.03332C27.6072 2.11832 27.8263 2.24254 28.0044 2.36677C28.3126 2.53676 28.6208 2.74598 28.881 2.99442L29.3194 3.45209C29.4495 3.53708 29.6276 3.57631 29.8878 3.57631C30.107 3.57631 30.2851 3.66131 30.4152 3.78553C30.6344 3.95552 30.7645 4.16474 30.9837 4.32819L31.511 4.78586C31.6891 4.95585 31.9083 5.08007 32.1274 5.16507C32.6068 5.33506 32.7849 5.37429 33.0452 5.79272C33.1342 6.00194 33.3054 6.12617 33.4424 6.29616C33.5315 6.42038 33.6205 6.59037 33.6205 6.88458V7.0938C33.6205 7.76069 33.8397 7.55147 33.8397 7.89145C33.8397 8.01567 33.8396 8.18566 33.7506 8.47988V8.49295ZM29.4153 8.57795L29.155 7.61685L28.8947 6.86497C28.4975 6.02809 28.5455 6.23731 28.2373 5.69465C28.0592 5.36121 27.888 5.067 27.6688 4.81855C27.4907 4.60933 27.2716 4.43934 27.0113 4.27589C26.7031 4.1059 26.4839 3.94245 26.2648 3.73323C26.0456 3.52401 25.8675 3.27556 25.7374 2.98135C25.6073 2.68713 25.3881 2.52368 25.121 2.43869C24.8128 2.2687 24.4224 2.22947 24.1553 2.19024C23.9361 2.15101 23.7581 2.10524 23.6279 2.10524C23.3197 2.19024 23.2307 2.39946 23.1006 2.77213L22.9225 3.36056C22.8335 3.53055 22.7444 3.65477 22.5253 3.81822C22.3472 3.94245 22.2171 4.06667 22.128 4.23666C22.039 4.44588 21.95 4.69432 21.7787 4.94931C21.5596 5.40698 21.4294 5.78618 21.0322 6.03463C20.635 6.28308 20.8541 6.78651 20.4638 7.11995C20.2857 7.24418 20.0665 7.62339 19.9364 7.99606C19.8063 8.2445 19.8063 8.45372 19.7172 8.66294C19.6761 8.87216 19.5871 9.08138 19.32 9.32983C19.1419 9.49982 18.9228 9.70904 18.7926 9.87249C18.5735 10.1209 18.4433 10.3759 18.3543 10.7486C18.3132 11.0428 18.1762 11.2913 18.005 11.5462C17.8269 11.7947 17.6557 12.0497 17.6078 12.2589C17.4776 12.6773 17.2105 13.0108 16.9503 13.6384C16.7722 13.9326 16.69 14.1419 16.601 14.3511C16.4708 14.5995 16.3407 14.8087 16.1215 14.9787C15.9024 15.1487 15.5942 15.5214 15.3339 15.9398C15.1148 16.319 14.9367 16.7375 14.8956 17.0709C14.8956 17.3651 14.7655 17.6136 14.6353 17.8228C14.4573 18.117 14.286 18.4112 14.286 18.6597C14.286 19.0389 14.0669 19.4116 13.8066 19.745C13.5875 20.0392 13.3683 20.2877 13.2793 20.4576C13.1491 20.6669 12.9711 20.9611 12.93 21.2095C12.93 21.2488 12.8889 21.3337 12.8889 21.3795C12.8889 21.4645 12.93 21.5495 13.019 21.628C13.1491 21.7522 13.3272 21.8372 13.5875 21.9222C13.6765 21.9614 13.8066 21.9614 13.9368 21.9614C14.0669 21.9614 14.245 21.9614 14.4162 21.9222C14.8545 21.9222 15.1627 21.8829 15.4709 21.8372C15.7791 21.7914 16.0394 21.7522 16.3476 21.7522C16.7448 21.7522 17.1352 21.7522 17.5324 21.6672C17.7927 21.5822 18.0118 21.4972 18.231 21.3337C18.5803 21.0853 18.9296 21.0853 19.2378 21.0853C19.4981 21.0461 19.7652 21.0003 19.9364 20.7911C20.2446 20.4969 20.4638 20.3727 20.813 20.2027L21.8198 19.8235C22.2171 19.6535 22.5184 19.4442 22.8266 19.235L24.1005 18.3132C24.3197 18.1889 24.5388 17.9797 24.758 17.7705C24.9772 17.5613 25.2374 17.3128 25.5045 17.1428C25.7237 17.0186 25.9429 16.7636 26.162 16.5152C26.4223 16.1817 26.6894 15.8483 26.9497 15.6391C27.2579 15.4299 27.2579 15.2206 27.3469 14.9722C27.388 14.8022 27.477 14.6388 27.6962 14.4295C28.0044 14.2203 28.1756 13.7626 28.3537 13.3442C28.4838 12.965 28.5318 12.5923 28.6139 12.3831C28.703 11.9647 28.9221 11.7162 28.9221 11.2128V11.0036C28.9221 10.7551 28.9632 10.5851 29.0523 10.4151C29.1413 10.2059 29.3125 9.99671 29.4016 9.66327C29.4427 9.53905 29.4427 9.41482 29.4427 9.24483C29.4427 9.03561 29.4427 8.82639 29.4016 8.57795H29.4153Z" fill="#435065"/>
<path d="M42.1207 13.8084C41.8125 13.9784 41.6824 14.0569 41.4632 14.4753C41.203 14.8937 40.9838 15.2272 40.6276 15.3514C40.3194 15.4756 40.1893 15.5999 39.9701 15.8941C39.7921 16.1425 39.3537 16.1033 39.0045 16.3517C38.6072 16.561 38.436 16.8944 37.9497 16.9402C37.4634 16.9859 37.1142 17.0252 36.8128 17.1886L36.1964 17.4828L35.3608 17.6528C35.1828 17.692 34.7924 17.777 34.5732 17.777C34.4842 17.777 34.3951 17.777 34.3951 17.692C34.3951 17.6528 34.8335 17.3128 35.0937 17.2344C35.4019 17.1102 35.7512 17.0644 35.8403 17.0252C36.1005 16.9402 36.806 16.6917 37.0662 16.3583C37.3744 15.9791 37.8127 15.8548 38.1209 15.5606C38.3812 15.3122 38.4702 14.933 38.6894 14.6845C38.9086 14.3903 39.0387 14.2661 39.1688 13.9719C39.2099 13.9327 39.2099 13.8477 39.2099 13.8019C39.2099 13.6319 39.0318 13.5534 38.8127 13.3835C38.6346 13.2592 38.3333 13.1742 38.0251 13.1742C37.847 13.1742 37.6278 13.2135 37.4977 13.2985C37.1005 13.5077 36.8813 13.5077 36.443 13.8019C36.0046 14.0503 35.7444 14.3903 35.4362 14.5995C35.1759 14.848 35.0869 15.2664 34.7376 15.4756C34.4294 15.6849 34.4294 16.0641 34.2102 16.3517C34.0322 16.6002 33.9911 16.9794 33.7308 17.2278C33.5116 17.5221 33.3336 17.7705 33.2034 18.2347C33.1144 18.4439 33.1144 18.5682 33.1144 18.7381C33.1144 18.9474 33.1555 19.1566 33.2034 19.4508C33.2445 19.9542 33.4226 20.4969 33.6418 20.7061C33.902 20.9546 34.3883 21.1638 34.6486 21.4188C34.8677 21.5887 35.6553 21.713 36.2238 21.713C36.443 21.713 36.621 21.6737 36.7032 21.628C36.9635 21.458 38.0593 21.543 38.3264 21.458C38.6346 21.373 38.6346 21.3338 39.162 21.1245C39.6893 20.9546 39.7784 20.7453 40.0797 20.6669C40.34 20.5819 40.5592 20.3727 40.8263 20.1634C41.1345 19.9542 41.2646 19.8692 41.4427 19.7058C41.6207 19.5816 41.7029 19.6208 41.881 19.4966C41.9221 19.4573 42.0111 19.4573 42.0591 19.4573C42.1481 19.4573 42.2371 19.5423 42.2371 19.6273C42.2371 19.7123 42.196 19.7515 42.107 19.8365L41.4495 20.2942C41.2303 20.5034 41.1002 20.8369 40.8811 20.9219C40.6208 21.0069 40.4427 21.1703 40.2647 21.3795C40.1756 21.4645 39.6482 21.883 39.3469 22.0464C39.0387 22.2556 38.7784 22.3406 38.4702 22.5498C38.21 22.7983 37.5936 23.0075 37.3333 23.0075C37.0251 23.0075 36.2786 23.1317 35.9293 23.2167C35.669 23.256 35.3129 23.426 35.0115 23.426C34.8814 23.426 34.7513 23.3867 34.6623 23.341C34.402 23.256 33.6075 23.2167 33.087 23.2167H32.6487C32.5185 23.2167 32.3884 23.256 32.2514 23.256C32.0323 23.256 31.772 23.2167 31.3748 23.086C30.7173 22.8375 30.4091 22.1641 30.1009 22.0399C29.8817 21.9157 29.6215 21.373 29.6215 21.033L29.8406 19.6535C29.8817 19.3593 30.457 18.7774 30.7173 18.5224C31.0255 18.3132 31.1145 18.3524 31.2446 17.9797C31.3748 17.6005 31.4638 17.1428 31.9021 16.9336C32.3405 16.7244 32.3816 16.2667 32.6007 16.0968C32.861 15.9725 33.0802 15.5083 33.3884 15.3841C33.6486 15.2599 33.6966 15.2599 33.9157 15.0899C34.2239 14.7564 34.5321 14.7564 34.6143 14.423C34.7033 14.1288 35.0526 13.9196 35.3129 13.6711C35.6211 13.3769 36.1005 12.7493 36.4087 12.54C36.758 12.2916 37.0251 12.0366 37.2443 11.8732C37.4224 11.7489 37.8607 11.4547 38.162 11.4547C38.5113 11.4547 38.8195 11.2847 39.3469 11.2847C39.8743 11.2847 40.4427 10.9513 40.7509 10.9055C41.1002 10.9055 41.4084 11.0297 41.8467 11.4482C42.1549 11.7424 42.107 12.1608 42.3262 12.5793C42.3673 12.7035 42.4152 12.9127 42.4152 13.0827C42.4152 13.3769 42.3262 13.6711 42.107 13.7954L42.1207 13.8084Z" fill="#435065"/>
<path d="M57.0239 20.085C56.7157 20.3334 56.6267 20.5427 56.4075 20.6277C56.1884 20.7127 56.0993 20.8369 55.75 21.1311C55.4007 21.4253 55.4418 21.5495 55.0514 21.7587C54.6131 21.968 54.7432 22.0922 54.2159 22.2622C53.8186 22.4322 53.6474 22.5564 53.3803 22.5956C52.942 22.6348 52.7228 22.9748 52.3735 22.9748H51.9352C51.7571 22.9748 51.5859 22.9748 51.4078 23.0598C51.2298 23.0991 51.0585 23.1448 50.9284 23.1448C50.6202 23.1448 50.401 23.0598 50.1819 22.9356C49.9216 22.7656 49.9627 22.5172 49.6545 22.3929C49.3942 22.2687 49.3052 21.6411 49.3052 21.3468C49.3463 21.0984 49.3463 21.0134 49.3463 20.8892C49.3463 20.5557 49.2162 20.3008 49.086 20.3008C49.045 20.3008 48.997 20.34 48.9559 20.3857C48.6957 20.68 48.5587 20.6342 48.2094 20.9742C47.8601 21.2226 47.5519 21.5168 47.1547 21.7261C46.8054 21.9353 46.4972 22.2687 46.0999 22.3145C45.7027 22.3537 45.7917 22.5629 45.3534 22.6479C44.9151 22.7329 44.3466 23.2364 43.9083 23.2364C43.4289 23.2364 43.1207 22.9879 42.8125 22.7329C42.5043 22.3995 42.4632 22.3995 42.244 22.1053C42.0248 21.896 41.6755 21.6018 41.6755 21.0984C41.7166 20.4315 41.7166 20.0915 41.8057 19.7581C41.8947 19.4246 42.333 18.6728 42.6412 18.4178C42.9494 18.2086 43.2576 17.7509 43.3878 17.4567C43.5179 17.1625 43.785 17.0382 44.0042 16.8683C44.2644 16.6983 44.7507 16.3648 45.011 16.1164C45.2712 15.8679 45.4904 15.7372 45.7095 15.4887C45.9698 15.2403 46.1479 15.2403 46.4561 14.8611C46.7643 14.4819 46.8944 14.3184 47.2437 14.0634C47.7711 13.6842 47.9423 13.73 48.3395 13.3508C48.7368 12.9323 48.9559 12.8081 49.2162 12.5531C49.4764 12.3439 49.9148 11.9255 50.4421 11.9255C50.9695 11.9255 51.0996 11.6313 51.4489 11.6313C51.7982 11.6313 51.9763 11.507 52.4557 11.507C52.9831 11.507 53.1132 11.8012 53.3324 11.9647C53.6817 11.9647 53.6817 11.5463 53.9488 11.337C54.5652 10.8336 54.3871 10.9578 54.5652 10.6702C54.6542 10.5459 54.7432 10.4609 54.9145 10.4609C55.0446 10.4609 55.1747 10.5002 55.3939 10.5459C55.572 10.5852 55.6541 10.7159 56.0925 10.7944C56.4007 10.8336 56.5719 10.9186 56.6198 11.0886C56.6609 11.1736 56.7979 11.3828 56.7979 11.592C56.7979 11.677 56.7979 11.7162 56.7568 11.8012C56.6678 12.0105 56.7157 12.1347 56.4966 12.3439L56.0993 12.7231L55.5309 13.39C55.0925 13.8934 55.0514 13.9784 54.7843 14.1419C54.5241 14.3119 54.346 14.7303 54.1679 15.018L53.2502 16.2733C53.0721 16.5217 52.9899 16.6917 52.9899 16.816V17.0252C52.9899 17.1102 52.9899 17.2344 52.8598 17.4044C52.6817 17.6136 52.6406 17.8228 52.6406 18.032V18.3263C52.6406 18.4505 52.6406 18.5747 52.5516 18.6597C52.2913 18.9931 52.4215 19.4116 52.2913 19.915C52.2502 20.0392 52.2502 20.1242 52.2502 20.2484C52.2502 20.6277 52.4283 21.0003 52.5995 21.0853C52.8187 21.2095 52.9077 21.3795 53.257 21.543H53.4351C53.7844 21.543 54.3529 21.373 54.572 21.2095C55.0514 20.8761 55.0994 21.0396 55.3185 20.7911C55.5788 20.4577 55.6678 20.4577 56.0171 20.2877C56.3253 20.1177 56.3664 20.0392 56.5445 19.83C56.6746 19.66 56.8938 19.5816 57.0719 19.5816C57.1609 19.5816 57.202 19.5816 57.2499 19.6208C57.291 19.66 57.339 19.7058 57.339 19.745C57.339 19.8692 57.1609 19.9542 57.0308 20.0785L57.0239 20.085ZM52.2023 14.1876C51.8051 14.0177 51.942 14.0634 51.6338 13.8084C51.3256 13.56 51.1065 13.56 50.7983 13.56C50.6202 13.56 50.449 13.475 50.2709 13.475C50.1408 13.475 49.9627 13.5142 49.7915 13.645C49.3121 13.9392 49.0929 13.7692 48.8258 14.1026C48.5655 14.4361 48.3464 14.5603 48.0382 14.6911C47.7779 14.8153 47.3807 15.2795 47.0725 15.4037C46.7643 15.5737 46.5451 15.7829 46.3259 16.1556C46.1068 16.5348 45.7986 16.8225 45.7986 17.0775C45.7986 17.2867 45.4493 17.7444 45.4013 18.0843C45.3602 18.4178 45.2712 18.712 45.2712 19.1697C45.2712 19.6731 45.2712 19.9215 45.6205 20.34C45.9698 20.7976 45.7506 20.6734 46.2369 20.9284C46.3259 20.9676 46.4561 21.0134 46.5451 21.0134C46.8533 21.0134 47.1136 20.8042 47.3807 20.7192C47.73 20.595 48.1272 20.3857 48.3464 20.2158C48.5655 20.0458 48.8737 19.6273 49.134 19.5489C49.3942 19.4639 49.8805 19.0062 50.2709 18.4178C50.6613 17.8294 50.9695 17.4567 51.1887 17.0775C51.4078 16.744 51.1887 16.3648 51.716 15.7829C51.8941 15.6129 51.8941 15.5345 51.8941 15.4495C51.8941 15.3645 51.8941 15.2795 51.9831 15.0703C52.1133 14.8218 52.2913 14.5276 52.2913 14.3576C52.2913 14.2726 52.2913 14.2334 52.2023 14.1876Z" fill="#435065"/>
<path d="M71.8381 13.0108C71.797 13.0958 71.797 13.135 71.797 13.22C71.797 13.3442 71.8381 13.4684 71.8381 13.6384C71.8381 13.8084 71.797 13.9719 71.5779 14.2268C71.3176 14.4753 71.0984 14.6845 70.9204 14.8937C70.6122 15.1879 70.3519 15.4364 70.2218 15.6914C70.0026 16.0706 69.7424 16.234 69.5232 16.234C69.4821 16.234 69.3931 16.1948 69.3451 16.1948C69.2561 16.1948 69.2561 16.1556 69.2561 16.0706C69.2561 15.9464 69.3862 15.6914 69.3862 15.4037C69.3862 15.3187 69.3451 15.2795 69.3451 15.1945C69.3451 14.776 69.6533 14.3968 69.6533 14.1484C69.6533 14.0634 69.6122 14.0242 69.5643 13.9784C69.215 13.645 68.8177 13.475 68.1603 13.475C67.5439 13.475 67.1535 13.645 66.6672 14.0176L65.8316 14.7303C65.5714 14.9787 65.3522 15.1879 65.1741 15.4429C64.9961 15.6914 64.7769 15.8614 64.5577 16.0314C64.3386 16.2013 64.0304 16.3256 63.6811 16.5348C63.0236 16.914 62.6263 17.3717 62.236 17.7051C61.8387 17.9993 61.7086 18.1235 61.4004 18.9604C61.2223 19.3789 61.1401 19.8823 61.0511 20.34C60.9621 20.7192 60.8319 21.0918 60.6128 21.386C60.0854 22.0137 60.6128 22.3079 59.9553 22.8113C59.2978 23.3148 58.9005 23.3148 58.38 23.3148C57.8595 23.3148 58.0718 22.9356 57.5445 22.9356C57.3253 22.9356 57.1061 22.9748 56.976 22.9748C56.7979 22.9748 56.6678 22.8898 56.6267 22.5564C56.6267 21.9287 56.8459 21.7195 56.8459 21.386C56.8459 21.0068 57.065 20.3792 57.4143 20.255C57.7225 20.1307 57.4554 19.8757 57.8527 19.5031C58.3321 19.0454 58.9074 18.8754 58.9896 18.2478C59.0307 17.6201 59.3868 17.5809 59.7361 17.0774C60.1333 16.574 59.8251 16.4498 60.2635 15.7829C60.7429 15.0703 61.01 14.8218 61.1401 14.2791C61.2292 13.9457 61.3182 13.7365 61.3182 13.4815C61.3182 13.3115 61.1881 13.2723 61.0579 13.2723C60.7087 13.3115 60.5306 13.4423 60.1813 13.4423C59.743 13.4423 59.5649 13.6123 59.3457 13.6515C59.1677 13.6907 59.0375 13.7757 58.9485 13.7757C58.9074 13.7757 58.8595 13.7757 58.8595 13.6907C58.8595 13.6515 59.1676 13.0631 59.4758 13.0238C59.7361 12.9846 60.2224 12.7296 60.4826 12.6904C61.099 12.5662 61.8387 12.102 62.0168 11.9385C62.4551 11.4808 62.8044 11.2259 63.4208 11.2259C63.9893 11.2259 64.2564 10.9774 64.8659 10.9774C65.2152 10.9774 65.3043 11.1474 65.3043 11.3959C65.3043 11.5658 65.2632 11.7751 65.1741 11.9843C64.9961 12.4877 65.2152 12.7819 64.8659 13.2396C64.4687 13.658 64.4687 14.5799 63.9482 15.0376C63.64 15.286 63.3797 15.5802 63.3797 15.7045C63.3797 15.7437 63.4208 15.7894 63.5578 15.7894C64.2564 15.6652 64.5235 15.2468 65.0029 14.8283L66.7562 13.3638C67.1946 12.9062 67.4137 12.357 67.8931 12.2327C68.4205 12.1085 68.3726 11.3566 68.7698 11.3109H68.9479C69.1259 11.3109 69.3862 11.3501 69.6054 11.3959C69.8656 11.4351 70.1327 11.4808 70.393 11.4808H70.6533C71.0505 11.4808 71.1327 11.5201 71.4888 11.8601C71.6669 12.03 71.797 12.1935 71.8381 12.3635C71.8792 12.4877 71.8792 12.5727 71.8792 12.6969C71.8792 12.8212 71.8792 12.9454 71.8381 13.0304V13.0108Z" fill="#435065"/>
<path d="M116.637 1.58874C116.287 2.00718 116.02 2.2164 115.671 2.88329C115.363 3.55017 115.363 3.89015 115.055 4.17783C114.746 4.51127 114.657 4.84471 114.356 5.18469C114.048 5.47891 114.137 6.10656 113.699 6.56423C113.26 7.02189 113 7.27688 112.911 7.73454C112.781 8.19221 113 8.32297 112.514 8.65641C112.034 9.03562 112.206 9.53252 111.726 10.2452C111.247 10.9578 111.069 11.082 111.028 11.7489C110.986 12.3766 110.938 12.6708 110.548 13.2985C110.199 13.8869 110.329 14.0111 110.021 14.5538C109.671 15.0572 109.274 15.5149 109.103 15.9791C108.932 16.4433 108.973 16.5217 108.624 17.3194C108.315 18.0713 108.274 17.9863 108.007 18.5355C107.74 19.0847 107.61 19.2481 107.35 19.7515C107.089 20.2942 107.22 20.5884 107.041 20.8826C107 20.9676 106.952 21.0069 106.952 21.0526C106.952 21.1376 107.041 21.1768 107.083 21.4711C107.124 21.8045 107.172 22.1379 107.829 22.1379C108.617 22.1379 109.014 22.0529 109.363 22.0529C109.541 22.0529 109.713 22.0529 109.843 22.0922H110.021C110.281 22.0922 110.418 22.0072 110.678 22.0072C110.767 22.0072 110.856 22.0072 110.986 22.0464C111.117 22.0856 111.247 22.0856 111.384 22.0856H111.822C111.952 22.0856 112.041 22.0856 112.13 22.1706C112.308 22.2949 112.39 22.4191 112.39 22.5498C112.39 22.6348 112.301 22.7198 112.082 22.7591C111.863 22.7983 111.644 22.8441 111.425 22.8441C111.117 22.8441 110.767 22.8048 110.24 22.8048C109.541 22.8048 108.836 22.8441 108.309 22.8441H107.692C107.213 22.8441 106.946 22.9291 106.555 23.0533C106.377 23.1383 106.247 23.1383 106.117 23.1383H105.857C105.768 23.1383 105.679 23.1383 105.548 23.1775C105.418 23.2167 105.329 23.2167 105.199 23.2167C104.939 23.2167 104.72 23.1775 104.411 23.1317C104.014 23.0467 103.275 23.171 102.836 22.9617C102.658 22.9225 102.439 22.8767 102.22 22.8767H101.124C100.775 22.8767 100.377 22.9617 100.028 22.9617C99.8501 22.9617 99.6789 22.9617 99.5008 22.8767C99.2406 22.7525 99.1036 22.6675 99.1036 22.5825C99.1036 22.4975 99.2817 22.4125 99.5419 22.2883C99.9803 22.1183 100.33 22.0791 100.638 22.0791H100.898C101.377 22.0791 101.816 21.9549 102.254 21.6607C102.734 21.3665 102.692 20.6146 103.09 20.3204C103.439 19.9869 103.439 19.4443 103.925 19.0258C104.405 18.6074 104.624 18.1039 104.843 17.5613C105.062 16.9729 104.932 16.476 105.631 16.221C106.329 15.9725 105.85 15.5541 106.199 15.0049C106.596 14.4622 107.076 13.6254 107.336 12.9519C107.596 12.2785 107.733 11.9058 108.035 11.4874C108.343 11.069 108.473 10.2321 108.733 9.85288C108.993 9.43445 108.952 9.05524 109.302 8.47335C109.699 7.84569 110.048 7.30303 110.137 6.83883C110.178 6.38116 110.226 6.00195 110.445 5.7535C110.623 5.54429 110.925 5.33507 110.925 5.12585C110.925 5.08662 110.925 5.04085 110.884 5.00163C110.843 4.9624 110.754 4.91663 110.665 4.91663C110.486 4.91663 110.315 5.08662 110.226 5.42006C110.137 5.87773 109.966 5.92349 109.658 6.17194C109.308 6.42039 108.959 6.96959 108.603 7.13304C108.295 7.30303 108.076 7.96992 107.767 8.17913C107.459 8.34912 106.802 8.80679 106.322 9.26446C105.843 9.72212 105.357 10.1013 104.918 10.559C104.521 11.0167 104.261 11.5659 103.822 11.7751C103.384 11.9843 103.124 12.612 102.727 12.7819C102.377 12.9912 102.158 13.4096 101.72 13.7038C101.282 14.0373 100.973 14.2465 100.535 14.7499C100.138 15.2533 99.9186 15.711 99.4803 15.966C99.042 16.2144 98.5146 16.8879 98.1242 17.1363C97.7749 17.3848 97.5968 17.8882 97.2476 18.1824C96.8503 18.4309 96.412 18.7708 96.2819 19.0585C96.1038 19.3919 96.2818 19.8954 96.0216 20.1438C95.7613 20.3923 95.6244 20.8565 95.0559 20.9807H94.7956C94.3984 20.9807 94.3162 20.8107 94.0491 20.6473C93.6998 20.438 93.2135 20.353 93.2135 19.8954C93.2135 19.6469 93.1245 19.307 93.1245 19.0193C93.1245 18.8101 93.1656 18.6401 93.3026 18.5616C93.5628 18.3132 93.3437 18.1824 93.7409 17.8097C94.1792 17.4305 94.7066 17.3063 94.9258 16.8029C95.1449 16.2602 95.0559 15.7568 95.4052 15.4233C95.8024 15.0441 96.0216 14.9657 96.1038 14.5472C96.2339 14.1288 96.8024 13.8346 96.8914 13.3769C97.0215 12.9192 97.4599 12.2916 97.5078 11.9516C97.5489 11.5724 97.4667 11.154 97.8571 10.7813C98.2954 10.3629 98.3365 9.52598 98.6036 9.23177C98.7817 9.06178 98.8639 8.89832 98.8639 8.7741C98.8639 8.68911 98.8228 8.60411 98.7749 8.52565C98.7338 8.44066 98.6858 8.44066 98.6447 8.44066C98.5146 8.44066 98.2475 8.64988 98.0763 8.81987C97.816 9.06831 97.3297 9.86596 97.0215 9.99018C96.7133 10.1602 96.275 10.7028 95.8367 11.0755C95.3983 11.4547 94.871 12.0824 94.6107 12.37C94.3505 12.6643 94.0423 12.7035 93.3368 13.6646C92.9396 14.2072 92.6793 14.8807 92.0218 15.2533C91.4054 15.5868 91.1863 15.966 90.7068 16.5479C90.2274 17.0905 89.9603 17.509 89.522 17.7182C89.0837 17.9274 88.6453 18.2609 88.4673 18.5943C88.3371 18.9735 87.8098 19.137 87.5906 19.5162C87.3714 19.8496 87.1523 20.1046 87.0221 20.438C86.8441 20.7323 86.3236 21.0265 86.0564 21.2357C85.7893 21.4449 85.399 21.5299 85.1798 22.0726C84.9606 22.576 85.0497 22.661 84.7004 23.1187C84.3922 23.5763 83.6936 23.9948 83.3443 24.0798C83.3032 24.0798 83.2142 24.119 83.1662 24.119C82.947 24.119 82.769 23.9948 82.6388 23.9948C82.5978 23.9948 82.5498 23.9948 82.5087 24.034C82.2896 24.204 81.9403 24.2432 81.454 24.2432H80.9746C80.228 24.2432 80.0089 23.9948 79.5294 23.864C79.05 23.779 78.6528 23.2756 78.6117 23.0664C78.5706 22.8571 77.8241 22.4387 77.7761 21.981C77.7761 21.4776 78.1254 21.2292 78.1734 20.8107C78.2624 20.353 78.2624 20.1831 78.7898 20.0131C79.3171 19.8431 79.4473 19.3004 79.9746 19.3004C80.502 19.3004 80.6732 19.2154 81.0294 19.0062C81.3376 18.8362 81.6868 18.797 81.995 18.797H82.2553C82.9128 18.882 83.221 19.0062 83.5703 19.2547C83.6593 19.3396 83.7484 19.3789 83.7895 19.3789C83.8785 19.3789 83.9675 19.3396 84.0977 19.3396C84.1867 19.3396 84.2757 19.3396 84.4059 19.3789C84.536 19.4181 84.625 19.4639 84.7141 19.4639C84.9332 19.4639 85.1113 19.3396 85.3716 19.3396C85.4126 19.3396 85.4606 19.3789 85.5496 19.3789C85.5496 19.3789 85.8099 19.1697 86.4674 18.9604C86.7756 18.8362 87.0358 18.9212 87.4331 18.4178C87.8714 17.9143 88.0495 17.9143 88.5289 17.5809C89.0083 17.2867 88.659 17.0382 89.3645 16.574C90.063 16.1164 90.4192 15.9464 90.8986 15.2795C91.2479 14.7761 91.8643 14.4034 92.2136 14.0242C92.6108 13.6057 92.9122 13.1481 93.3505 12.7296C93.8779 12.272 94.1381 11.6835 94.7066 11.3501C95.323 11.0559 95.186 10.5525 95.8024 10.2648C96.3709 9.97057 96.2408 9.5979 96.7202 9.25792C97.1996 8.9637 97.2886 8.71526 97.6379 8.29682C97.9461 7.87838 98.2954 7.58417 98.5146 7.1265C98.7338 6.66884 99.131 6.37462 99.3502 6.11964C99.5693 5.82542 99.8775 5.57698 100.097 5.24353C100.316 4.86433 100.227 4.49165 100.494 4.28244C100.802 4.07322 100.713 3.40633 101.11 3.19711C101.46 2.9879 101.199 2.44523 101.46 2.0268C101.768 1.60836 101.501 0.895708 101.857 0.856479C102.117 0.856479 102.295 0.941474 102.514 0.941474C102.603 0.941474 102.734 0.941474 102.823 0.902246C103.22 0.817251 103.439 0.568804 104.049 0.568804H104.309C104.706 0.568804 104.925 0.653799 105.096 0.902246C105.227 1.11146 105.316 1.28145 105.316 1.49067C105.316 1.66066 105.274 1.82412 105.185 2.03333C105.055 2.62176 105.007 2.90944 104.617 3.20365C104.268 3.53709 104.439 4.0013 104.09 4.28897C103.692 4.58319 103.692 4.95586 103.213 5.45929C102.734 5.96272 102.597 6.08695 102.206 6.83883C101.857 7.59071 101.727 7.88492 101.419 8.09414C101.11 8.30336 101.11 8.59757 100.761 9.17946C100.453 9.72212 100.501 10.1406 99.9734 10.6832C99.446 11.2716 99.6652 11.3501 99.1858 11.9778C98.7064 12.6054 98.9255 12.9389 98.5283 13.5273C98.1311 14.0699 98.2201 14.0307 98.09 14.6976C98.0009 15.3253 97.8708 15.3253 97.6105 15.8679C97.3914 16.2471 96.864 16.999 96.864 17.2475C96.864 17.3325 96.9051 17.3325 97.0421 17.3325C97.5694 17.2475 97.7407 16.7898 98.0489 16.4564C98.3571 16.1621 98.7064 16.0771 99.0146 15.7437C99.3228 15.4495 99.4529 15.201 99.9803 14.7368C100.508 14.2792 100.419 13.9392 101.035 13.4423C101.692 12.8996 101.912 12.7754 102.391 12.3112C102.87 11.8928 103.179 11.3043 103.706 10.8859C104.275 10.5067 105.151 9.66982 105.637 9.17292C106.124 8.67603 106.644 8.29682 106.863 8.04183L107.699 7.16573C108.007 6.83229 108.315 6.41385 108.795 5.94965C109.274 5.49198 109.322 5.152 109.713 4.81856C110.062 4.52434 109.932 4.2759 110.192 3.89669C110.452 3.56325 110.98 3.39326 111.199 3.09904C111.418 2.7656 111.856 2.38639 112.117 1.88296C112.377 1.3403 112.425 0.627646 112.815 0.418428C113.164 0.209209 113.781 0.379199 114.26 0.124214C114.479 -9.77889e-06 114.61 -0.0457764 114.74 -0.0457764C114.918 -0.0457764 115.089 0.0392187 115.397 0.163442C116.014 0.41189 116.274 0.372661 116.582 0.58188C116.76 0.706103 116.89 0.876094 116.89 1.03955C116.89 1.203 116.801 1.33376 116.63 1.54298L116.637 1.58874Z" fill="#435065"/>
<path d="M131.013 12.6381C130.882 12.8866 130.704 13.1808 130.314 13.2266C129.917 13.2658 129.568 13.3966 129.177 13.3966C128.787 13.3966 128.479 13.3116 128.122 13.3116C127.725 13.3116 127.376 13.4816 127.287 13.815C127.198 14.1092 126.759 14.2334 126.54 14.6519C126.321 15.0703 126.143 15.4495 125.883 15.528C125.664 15.5672 125.355 16.3256 125.184 16.5741C125.006 16.8683 124.616 17.326 124.397 17.5352C124.136 17.7836 124.047 17.8686 123.828 18.2478C123.609 18.627 123.349 19.0847 123.13 19.1697C122.869 19.2939 122.821 19.8366 122.561 20.0066C122.342 20.1766 122.212 20.255 122.082 20.5492C121.993 20.8827 121.684 21.3011 121.465 21.5103C121.287 21.7588 121.157 22.223 120.808 22.5172C120.5 22.8114 120.328 22.9356 120.28 23.3541C120.28 23.7333 119.534 24.4852 119.315 24.8186C118.787 25.6555 119.137 25.6162 118.178 26.4923C117.26 27.3292 116.952 28.2903 116.335 28.6238C115.719 28.918 115.897 29.4999 115.109 30.1733C114.144 30.9709 114.849 30.716 114.014 31.3894C113.226 32.0563 113.397 32.3962 112.918 32.6447C112.39 32.8539 112.26 33.1024 111.863 33.73C111.685 33.9785 111.514 34.1484 111.295 34.3184L110.377 35.0311C109.939 35.3645 109.85 35.5345 109.63 35.7437C109.322 36.038 108.973 36.3322 108.446 36.5806C107.877 36.9141 107.788 37.3325 107.22 37.4175C106.692 37.5417 107 37.8359 105.905 38.2544C104.809 38.6336 105.288 38.6336 104.329 39.0062C103.364 39.3397 103.055 39.6339 102.665 39.6339C102.138 39.6339 101.439 40.0131 100.953 40.0131C100.823 40.0131 100.734 39.9739 100.645 39.9281C100.604 39.8889 100.514 39.8889 100.467 39.8889C100.336 39.8889 100.158 39.9281 99.9871 39.9281C99.768 39.9281 99.5488 39.8889 99.2885 39.5947C98.7612 39.0062 98.3708 38.5093 97.9735 38.4636C97.6242 38.4636 97.316 38.1301 97.316 37.169V36.9991C97.316 35.868 98.0146 35.2403 98.0146 34.5734C98.0557 33.8608 98.8023 33.3181 98.9324 32.8997C99.2817 32.102 99.631 31.9386 100.117 31.4351C100.597 30.8925 100.734 30.4283 101.473 30.2191C102.22 30.0491 102.391 29.7156 103.007 29.6306C103.405 29.5456 103.754 29.4214 103.925 29.4214C104.014 29.4214 104.055 29.4606 104.103 29.5456C104.103 29.8791 103.843 29.8398 103.446 29.9641C103.049 30.0883 102.658 30.631 102.172 30.8009C101.734 30.9709 101.692 30.7617 101.206 31.5986C100.857 32.2262 100.679 32.6447 100.679 33.3116C100.679 33.5208 100.679 33.7692 100.72 34.0634C100.85 35.1945 100.679 34.6519 100.939 35.3188C101.158 35.9464 101.638 35.9072 102.035 36.1949C102.384 36.5283 102.734 36.4041 103.042 36.6983C103.22 36.8225 103.439 36.9467 103.829 36.9467C104.138 36.9467 104.528 36.8618 105.055 36.6983C106.24 36.3649 105.754 36.3191 106.548 36.1556C107.336 35.9856 107.336 35.698 107.863 35.5672C108.261 35.443 108.562 35.1488 108.829 34.9003C109.048 34.6911 109.267 34.6061 109.665 34.2727C109.925 34.1484 110.144 33.8935 110.411 33.6842C110.671 33.475 110.939 33.2658 111.069 33.0566C111.377 32.5989 112.034 32.3047 112.514 31.7163C112.952 31.1736 113.171 31.0494 113.431 30.5852C113.74 30.1275 114.048 30.206 114.308 29.6241C114.527 29.1207 114.616 29.0357 115.055 28.663C115.493 28.3295 115.712 27.8261 116.109 27.5319C116.548 27.2377 116.767 26.6558 117.335 26.0674C117.863 25.5639 117.774 25.3547 118.123 24.8513C118.472 24.3936 118.301 24.3936 118.78 23.9752C118.78 23.9752 119.26 23.1775 119.308 23.1383C119.486 22.7591 119.568 22.4257 119.705 22.2164C119.794 22.1314 119.835 22.0072 119.835 21.9222C119.835 21.8372 119.794 21.798 119.657 21.798C119.178 21.8372 118.602 21.968 118.472 22.2164C118.342 22.4257 117.904 22.6349 117.596 22.6741C117.335 22.7133 116.63 23.0533 116.24 23.0533C115.931 23.0533 115.452 22.9291 115.144 22.9291H114.925C114.616 22.9291 114.308 22.7591 114.226 22.4714C114.185 22.1772 113.041 21.968 112.911 21.5953C112.87 21.5103 112.822 21.4253 112.822 21.3011C112.822 21.0069 113 20.6735 113.041 20.425C113.13 20.0916 113.219 19.6731 113.438 19.5489C113.616 19.4247 114.007 19.2155 114.137 18.9212C114.315 18.6728 114.664 17.9994 115.014 17.8752C115.363 17.7509 115.63 17.2867 115.76 16.9533C115.938 16.5741 116.109 16.1556 116.377 16.0314C116.596 15.9072 116.507 15.4887 116.685 15.1553C116.774 14.9853 116.774 14.9069 116.774 14.7761C116.774 14.6061 116.774 14.4819 116.863 14.3969C117.082 14.1484 117.39 13.8085 117.39 13.645C117.39 13.6058 117.349 13.56 117.301 13.5208C117.212 13.4816 117.123 13.4816 117.041 13.4816C116.733 13.4816 116.424 13.6515 116.205 13.73C115.678 13.9392 115.589 13.8542 115.199 14.0242C115.02 14.0634 114.719 14.2334 114.5 14.2334C114.411 14.2334 114.322 14.2334 114.281 14.1092C114.281 13.8608 114.808 13.4816 115.157 13.4816C115.418 13.4816 115.904 13.0239 116.123 12.8931C116.692 12.5989 116.692 12.5139 117.178 12.0955C117.616 11.7163 117.705 11.847 117.876 11.5921C118.055 11.3828 118.226 11.4221 118.534 11.2978C118.883 11.1278 118.664 11.0036 118.972 10.8402C119.191 10.7159 119.411 10.5917 119.719 10.5917C119.808 10.5917 119.938 10.5917 120.027 10.631C120.424 10.6702 120.684 10.7552 120.815 11.0102C120.856 11.0952 120.945 11.1344 120.993 11.1344C121.082 11.1344 121.171 11.0494 121.301 11.0494C121.342 11.0494 121.39 11.0494 121.479 11.0886C121.698 11.1736 121.876 11.4221 121.876 11.677C121.876 11.762 121.835 11.847 121.787 11.9713C121.609 12.3897 121.527 12.5989 121.308 12.8081C121.13 13.0566 120.91 13.2658 120.739 13.645C120.609 14.0242 120.301 14.1877 120.212 14.6519C120.123 15.1161 119.596 15.1095 119.465 15.4495C119.287 15.7437 119.027 15.953 118.767 16.1164C118.548 16.3256 118.328 17.0775 118.109 17.2017C117.931 17.3717 117.582 17.6202 117.541 17.9536C117.5 18.2478 117.452 18.287 117.144 18.6205C116.924 18.9147 116.705 19.1239 116.705 19.3724C116.835 19.7908 117.144 19.8758 117.274 20.1243C117.363 20.3727 117.89 20.5427 118.239 20.5427H118.548C118.767 20.5427 119.027 20.5819 119.294 20.6669C119.335 20.6669 119.383 20.7061 119.424 20.7061C119.643 20.7061 119.904 20.5819 120.212 20.4119C120.609 20.2419 120.609 20.0785 120.958 19.9085C121.308 19.6993 121.397 19.5293 121.705 19.1958C122.013 18.9016 122.054 18.7382 122.493 18.3982C122.842 18.0648 123.061 17.6006 123.328 17.2671C123.856 16.5152 124.164 16.4302 124.335 15.9726C124.554 15.5149 124.684 15.1749 124.951 14.8872C125.26 14.5538 125.431 13.9654 125.609 13.6319C125.787 13.2985 125.869 12.7558 126.088 12.5466C126.266 12.3766 126.438 11.9582 126.746 11.7947C127.006 11.5855 127.403 11.0429 127.664 10.8336C127.972 10.6636 128.362 10.7094 128.718 10.4544C128.848 10.3694 129.068 10.3302 129.335 10.3302C129.684 10.3302 130.122 10.4152 130.341 10.5002C130.65 10.6702 130.91 10.7486 130.91 11.0036C130.91 11.0429 130.91 11.0886 130.869 11.1736C130.78 11.3828 130.739 11.5528 130.739 11.7163C130.739 11.8013 130.739 11.8863 130.828 11.9647C130.917 12.1347 131.088 12.2589 131.088 12.4682C131.088 12.5074 131.088 12.5531 131.047 12.6381H131.013Z" fill="#435065"/>
<path d="M172.654 8.49295C172.565 8.91139 172.476 9.2056 172.476 9.41482C172.387 9.87249 172.435 10.0425 172.298 10.3367L172.038 10.9643C171.949 11.2128 171.777 11.4678 171.599 11.677C171.38 12.0104 171.421 12.1804 171.25 12.5139C171.161 12.6381 171.12 12.8081 170.901 13.0173C170.64 13.3115 170.462 13.5207 170.332 13.7692C170.113 14.1484 170.024 14.4818 169.805 14.7303L169.236 15.7764C169.106 15.9856 169.017 16.1948 168.887 16.3648C168.709 16.659 168.579 16.8682 168.408 16.9925L167.928 17.3717C167.75 17.4959 167.579 17.6201 167.271 17.7509C167.01 17.8751 166.743 18.0451 166.483 18.2935C166.305 18.4635 166.134 18.6727 165.915 18.8362C165.695 19.0846 165.346 19.3789 164.949 19.6338C164.6 19.8431 164.25 20.0131 163.942 20.0523C163.682 20.0915 163.374 20.2615 163.107 20.4315C162.709 20.6799 162.408 20.9349 162.23 20.9349C162.052 20.9349 161.661 21.1441 161.264 21.3534C160.867 21.5626 160.429 21.811 160.257 21.8568C159.997 21.8568 159.689 21.896 159.34 21.896C159.121 21.9353 158.86 21.981 158.641 22.066C158.381 22.151 157.943 22.2752 157.504 22.3602C157.155 22.3995 156.806 22.4845 156.538 22.4845L155.532 22.6544C155.093 22.7394 154.655 22.7394 154.436 22.7394C154.176 22.7394 153.689 22.7787 153.162 22.7787C152.594 22.8179 152.025 22.8179 151.936 22.8179C151.676 22.8179 151.237 23.0271 150.799 23.2363C150.71 23.2756 150.621 23.3213 150.491 23.3213C150.272 23.3213 150.011 23.2363 149.744 23.1971C149.484 23.1121 149.176 23.0729 148.957 23.0729L148.21 23.2429C148.032 23.2821 147.902 23.3279 147.594 23.3279C147.066 23.2429 147.197 22.7852 146.806 22.7852C146.498 22.8244 146.368 22.8702 146.19 22.8702C146.012 22.8702 145.971 22.831 145.971 22.831C146.012 22.7917 145.882 22.746 145.793 22.746C145.395 22.746 145.005 22.746 144.786 22.7067C144.567 22.6675 144.306 22.5825 143.998 22.5825H143.82C143.642 22.5825 143.471 22.6218 143.293 22.7067C143.074 22.831 142.895 22.8767 142.724 22.916H142.505C142.327 22.916 142.156 22.8767 141.937 22.831C141.676 22.746 141.498 22.746 141.279 22.7067C141.019 22.7067 140.8 22.746 140.622 22.746C140.444 22.746 140.313 22.7852 140.183 22.7852C140.005 22.7852 139.834 22.746 139.615 22.6152C139.396 22.491 139.087 22.321 138.957 22.1575C138.916 22.1183 138.916 22.0726 138.916 22.0333C138.916 21.9483 139.005 21.8241 139.177 21.6999H140.053C140.45 21.7391 140.889 21.7391 141.238 21.7391C141.587 21.7391 141.765 21.6999 141.985 21.6999C142.204 21.6999 142.464 21.6999 142.991 21.7849C143.169 21.8241 143.3 21.8241 143.341 21.8241H143.868C144.217 21.8633 144.306 21.9483 144.567 21.9483C144.745 21.9483 144.916 21.9483 145.135 21.9091C145.265 21.8699 145.354 21.8241 145.443 21.8241C145.621 21.8241 145.751 21.8633 145.923 21.9091C146.012 21.9091 146.101 21.9483 146.183 21.9483C146.361 21.9483 146.532 21.9091 146.751 21.8241C147.06 21.6999 147.231 21.5299 147.409 21.3207C147.587 21.0722 147.717 20.7322 147.936 20.3596C148.066 20.1504 148.197 19.9411 148.375 19.7319C148.594 19.4835 148.813 19.2285 148.991 18.98C149.121 18.81 149.251 18.6466 149.34 18.4766L149.82 17.6005C149.909 17.3521 150.039 17.0971 150.217 16.8486L150.744 15.8418C150.874 15.5083 151.053 15.2141 151.224 15.0049C151.443 14.7564 151.443 14.5864 151.532 14.338C151.621 14.168 151.71 14.0046 152.011 13.7496C152.409 13.3704 152.409 13.2069 152.45 12.9519C152.491 12.7819 152.58 12.5727 152.847 12.2L153.504 11.2782C153.682 10.9447 153.813 10.7355 153.854 10.4805C153.895 10.3105 154.032 9.9771 154.203 9.64365C154.292 9.43444 154.422 9.18599 154.6 8.97677C154.73 8.72832 154.95 8.5191 155.169 8.38834C155.429 8.17912 155.566 7.96991 155.648 7.79992C155.737 7.55147 155.737 7.29648 156.045 7.00227C156.223 6.83228 156.354 6.62306 156.484 6.41384C156.614 6.11963 156.703 5.82541 156.744 5.57697C156.785 5.19776 157.093 4.77932 157.443 4.44588C157.621 4.27589 157.703 4.02744 157.792 3.81822C157.833 3.609 157.922 3.39978 158.1 3.22979C158.319 3.02058 158.36 2.77213 158.497 2.51714C158.586 2.34715 158.675 2.13793 158.936 1.97448C159.196 1.81103 159.244 1.64104 159.244 1.55604C159.203 1.43182 158.984 1.38605 158.805 1.38605C158.716 1.42528 158.675 1.42528 158.545 1.42528C158.415 1.42528 158.285 1.42528 158.148 1.38605C157.621 1.34683 157.751 1.13761 157.011 1.09184C156.833 1.09184 156.265 1.13107 156.045 1.13107C155.696 1.13107 155.388 1.1703 155.08 1.25529C154.991 1.29452 154.86 1.29452 154.73 1.29452H154.073C153.854 1.33375 153.593 1.37952 153.415 1.37952H153.237C152.977 1.37952 152.491 1.54951 152.011 1.62796C151.573 1.71296 151.094 1.79795 150.826 1.92218C150.21 2.17062 150.347 2.30139 149.909 2.30139C149.512 2.30139 149.032 2.42561 148.683 2.75905C148.333 3.09249 148.203 3.26248 147.676 3.38671C147.108 3.51093 147.149 3.76592 146.758 4.01436C146.628 4.09936 146.539 4.22358 146.409 4.26281C145.971 4.64202 145.793 4.76624 145.751 5.01469C145.573 5.51812 145.272 5.22391 145.094 5.81234C145.005 6.06078 144.834 6.23077 144.656 6.40076C144.526 6.52499 144.478 6.64921 144.478 6.8192C144.478 6.9042 144.478 6.98919 144.519 7.11342C144.827 7.74107 144.998 7.82607 145.395 7.8653C145.745 7.90452 145.436 8.36873 145.793 8.53218C146.142 8.7414 146.101 9.12061 146.71 9.24483C146.929 9.28406 147.06 9.36905 147.238 9.41482C147.546 9.58481 147.806 9.70904 148.375 9.70904C149.251 9.70904 149.251 9.46059 149.731 9.37559C149.991 9.2906 150.039 9.2906 150.347 9.12715C150.607 9.00292 150.785 8.8787 150.916 8.70871C151.224 8.29027 151.354 8.4145 151.751 8.12028C151.881 8.03529 152.059 7.99606 152.148 7.99606C152.278 7.99606 152.367 8.03529 152.367 8.12028C152.367 8.15951 152.368 8.20528 152.326 8.2445C152.066 8.41449 151.758 8.70217 151.491 8.99638C151.313 9.12061 151.142 9.32983 150.963 9.53905C150.785 9.70904 150.614 9.87249 150.347 9.95748L149.731 10.1275C149.422 10.2517 149.073 10.3367 148.895 10.3759L148.018 10.6244C147.799 10.7094 147.58 10.7486 147.402 10.7486C147.183 10.7486 147.005 10.8336 146.875 10.8336C146.786 10.8336 146.697 10.7944 146.697 10.6636C146.656 10.4936 146.519 10.4936 146.299 10.4936H145.772C145.293 10.4936 145.025 10.1144 144.717 10.1144C144.676 10.1144 144.628 10.1536 144.587 10.1536H144.368C143.93 10.1536 143.45 9.98364 143.142 9.82018C142.923 9.65019 142.574 9.52597 142.265 9.36252C142.087 9.23829 141.957 9.0683 141.957 8.90485C141.957 8.52564 141.738 8.40142 141.738 8.15297C141.738 8.06798 141.738 7.98298 141.779 7.90452C141.82 7.7803 141.868 7.69531 141.868 7.61031C141.868 7.44032 141.738 7.40109 141.56 7.40109C141.252 7.40109 141.081 7.36186 141.081 6.77344C141.081 6.52499 141.039 6.31577 141.039 6.14578C141.039 6.02156 141.081 5.93656 141.128 5.85157C141.217 5.76657 141.307 5.68158 141.437 5.64235C141.745 5.51812 141.964 5.22391 142.183 4.9297C142.361 4.72048 142.532 4.51126 142.711 4.38703C142.889 4.26281 143.06 4.05359 143.238 3.8836C143.457 3.63516 143.717 3.42594 144.026 3.34094C144.553 3.25595 145.032 2.96173 145.341 2.5433C145.649 2.16409 146.087 2.41907 146.614 2.08563C146.875 1.91564 147.094 1.83718 147.361 1.70642C147.669 1.53643 147.977 1.37298 148.327 1.24875C148.724 1.07876 148.765 1.07876 148.984 1.07876H149.333C149.861 1.07876 149.731 0.908774 150.251 0.908774C150.772 0.908774 151.039 0.738784 151.607 0.738784C152.087 0.738784 152.306 0.490337 152.614 0.490337C152.703 0.490337 152.792 0.529565 152.922 0.575332C153.011 0.61456 153.141 0.660327 153.23 0.660327C153.409 0.660327 153.539 0.575332 153.669 0.536103C153.888 0.451108 154.326 0.451108 154.676 0.451108C155.374 0.451108 155.641 0.41188 155.73 0.366113C155.86 0.281118 155.86 0.24189 156.169 0.24189C156.347 0.24189 156.607 0.24189 157.004 0.281118C157.182 0.320347 157.312 0.320347 157.443 0.320347C157.751 0.320347 157.84 0.235352 158.319 0.235352C158.627 0.235352 158.936 0.27458 159.237 0.359575L159.853 0.529565C159.942 0.568794 160.031 0.568794 160.114 0.568794C160.196 0.568794 160.333 0.568794 160.511 0.529565C161.038 0.529565 161.168 0.653789 161.607 0.653789H161.785C162.182 0.653789 162.401 0.778013 162.661 0.902236C162.881 0.987231 163.141 1.07223 163.538 1.07223C163.935 1.07223 164.154 1.07223 164.285 1.11145C164.504 1.19645 164.593 1.32067 165.031 1.49066L166.305 2.03332C166.524 2.11832 166.743 2.24254 166.921 2.36677C167.23 2.53676 167.538 2.74598 167.798 2.99442L168.236 3.45209C168.367 3.53708 168.545 3.57631 168.805 3.57631C169.024 3.57631 169.202 3.66131 169.332 3.78553C169.551 3.95552 169.682 4.16474 169.901 4.32819L170.428 4.78586C170.606 4.95585 170.825 5.08007 171.044 5.16507C171.524 5.33506 171.702 5.37429 171.962 5.79272C172.051 6.00194 172.222 6.12617 172.359 6.29616C172.448 6.42038 172.538 6.59037 172.538 6.88458V7.0938C172.538 7.76069 172.757 7.55147 172.757 7.89145C172.757 8.01567 172.757 8.18566 172.668 8.47988L172.654 8.49295ZM168.319 8.57795L168.058 7.61685L167.798 6.86497C167.401 6.02809 167.449 6.23731 167.141 5.69465C166.962 5.36121 166.791 5.067 166.572 4.81855C166.394 4.60933 166.175 4.43934 165.915 4.27589C165.606 4.1059 165.387 3.94245 165.168 3.73323C164.949 3.52401 164.771 3.27556 164.641 2.98135C164.511 2.68713 164.291 2.52368 164.024 2.43869C163.716 2.2687 163.326 2.22947 163.059 2.19024C162.839 2.15101 162.661 2.10524 162.531 2.10524C162.223 2.19024 162.134 2.39946 162.004 2.77213L161.826 3.36056C161.737 3.53055 161.648 3.65477 161.429 3.81822C161.251 3.94245 161.12 4.06667 161.031 4.23666C160.942 4.44588 160.853 4.69432 160.682 4.94931C160.463 5.40698 160.333 5.78618 159.936 6.03463C159.538 6.28308 159.757 6.78651 159.367 7.11995C159.189 7.24418 158.97 7.62339 158.84 7.99606C158.71 8.2445 158.71 8.45372 158.621 8.66294C158.579 8.87216 158.49 9.08138 158.223 9.32983C158.045 9.49982 157.826 9.70904 157.696 9.87249C157.477 10.1209 157.347 10.3759 157.258 10.7486C157.217 11.0428 157.08 11.2913 156.908 11.5462C156.73 11.7947 156.559 12.0497 156.511 12.2589C156.381 12.6773 156.114 13.0108 155.854 13.6384C155.676 13.9326 155.593 14.1419 155.504 14.3511C155.374 14.5995 155.244 14.8087 155.025 14.9787C154.806 15.1487 154.498 15.5214 154.237 15.9398C154.018 16.319 153.84 16.7375 153.799 17.0709C153.799 17.3651 153.669 17.6136 153.539 17.8228C153.361 18.117 153.189 18.4112 153.189 18.6597C153.189 19.0389 152.97 19.4116 152.71 19.745C152.491 20.0392 152.272 20.2877 152.183 20.4576C152.052 20.6669 151.874 20.9611 151.833 21.2095C151.833 21.2488 151.792 21.3337 151.792 21.3795C151.792 21.4645 151.833 21.5495 151.922 21.628C152.052 21.7522 152.231 21.8372 152.491 21.9222C152.58 21.9614 152.71 21.9614 152.84 21.9614C152.97 21.9614 153.148 21.9614 153.319 21.9222C153.758 21.9222 154.066 21.8829 154.374 21.8372C154.682 21.7914 154.943 21.7522 155.251 21.7522C155.648 21.7522 156.039 21.7522 156.436 21.6672C156.696 21.5822 156.915 21.4972 157.134 21.3337C157.484 21.0853 157.833 21.0853 158.141 21.0853C158.401 21.0461 158.668 21.0003 158.84 20.7911C159.148 20.4969 159.367 20.3727 159.716 20.2027L160.723 19.8235C161.12 19.6535 161.422 19.4442 161.73 19.235L163.004 18.3132C163.223 18.1889 163.442 17.9797 163.661 17.7705C163.881 17.5613 164.141 17.3128 164.408 17.1428C164.627 17.0186 164.846 16.7636 165.065 16.5152C165.326 16.1817 165.593 15.8483 165.853 15.6391C166.161 15.4299 166.161 15.2206 166.25 14.9722C166.291 14.8022 166.38 14.6388 166.6 14.4295C166.908 14.2203 167.079 13.7626 167.257 13.3442C167.387 12.965 167.435 12.5923 167.517 12.3831C167.606 11.9647 167.825 11.7162 167.825 11.2128V11.0036C167.825 10.7551 167.867 10.5851 167.956 10.4151C168.045 10.2059 168.216 9.99671 168.305 9.66327C168.346 9.53905 168.346 9.41482 168.346 9.24483C168.346 9.03561 168.346 8.82639 168.305 8.57795H168.319Z" fill="#435065"/>
<path d="M179.708 20.2484C179.489 20.3334 179.311 20.5426 179.01 20.7518C178.66 20.9611 178.441 21.3403 178.263 21.4645C178.044 21.5887 177.695 21.8437 177.345 22.0072C176.948 22.2164 176.599 22.3864 176.38 22.4256C175.982 22.4648 175.633 22.5498 175.065 22.759C174.537 22.9683 174.058 22.9683 173.572 23.0925C173.483 23.1317 173.353 23.1317 173.222 23.1317C172.914 23.1317 172.606 23.0925 172.346 23.0925C172.216 23.0925 172.085 23.0925 171.948 23.1317C171.818 23.1709 171.688 23.2167 171.551 23.2167C171.243 23.2167 170.983 23.0467 170.764 22.759C170.586 22.589 170.414 22.3406 170.325 22.0921C170.236 21.8829 170.147 21.6737 170.147 21.4645C170.147 21.3795 170.147 21.2945 170.188 21.216C170.277 20.9218 170.318 20.7126 170.449 20.5034C170.579 20.2549 170.798 20.0457 171.106 19.8757C171.366 19.7515 171.585 19.5423 171.764 19.2873C171.983 19.0389 172.113 18.6989 172.161 18.5354C172.291 18.1562 172.558 17.947 173.037 17.5286C173.298 17.3193 173.517 16.9859 173.695 16.6525C173.873 16.319 174.044 15.9398 174.133 15.6914L174.791 14.521C175.01 14.1418 174.791 13.8542 175.14 13.5599C175.318 13.3507 175.448 13.2265 175.448 13.1023C175.448 13.0173 175.359 12.9781 175.229 12.9323C175.01 12.8931 174.969 12.8931 174.88 12.8931C174.839 12.8931 174.702 12.8931 174.531 12.9323C174.092 13.0565 174.27 13.1415 173.873 13.2265C173.695 13.3115 173.565 13.3115 173.435 13.3115C173.305 13.3115 173.174 13.3115 172.996 13.3507C172.777 13.4357 172.469 13.5207 172.298 13.5207C172.209 13.5207 172.168 13.4815 172.168 13.4357C172.168 13.39 172.168 13.3507 172.257 13.2657C172.517 12.9715 172.825 12.8473 173.133 12.8081C173.483 12.7688 173.921 12.5989 174.229 12.3896C174.537 12.1804 174.709 11.9712 175.065 11.8862C175.373 11.8012 175.373 11.677 175.9 11.592C176.469 11.4678 176.469 11.2128 176.777 11.0036C176.907 10.9186 177.654 10.8336 178.003 10.8336C178.133 10.8336 178.263 10.7943 178.352 10.7943C178.571 10.7943 178.749 10.8336 178.832 10.9643C179.092 11.2978 179.359 11.5528 179.359 11.9254C179.359 12.1346 179.448 12.2196 179.448 12.3046C179.448 12.3439 179.407 12.4289 179.318 12.5531L178.749 13.22C178.619 13.4292 178.489 13.5992 178.311 13.6776C178.133 13.8476 177.962 14.0568 177.784 14.3053C177.606 14.5145 177.476 14.763 177.304 14.9329C177.126 15.1029 176.955 15.3122 176.736 15.4756C176.428 15.7698 176.119 16.064 176.037 16.2733L175.64 16.7767C175.462 16.9859 175.291 17.2344 175.202 17.4893L174.852 18.4112C174.763 18.7054 174.633 18.9539 174.544 19.0781C174.325 19.4115 174.284 19.8757 174.017 20.1242C173.839 20.2942 173.709 20.5426 173.709 20.7518C173.709 20.8761 173.798 21.0003 173.969 21.0003C174.407 21.0853 174.448 21.458 174.935 21.5887C175.195 21.6279 175.414 21.6279 175.681 21.6279H175.941C176.072 21.6279 176.161 21.6279 176.339 21.543C176.688 21.4187 176.955 21.458 177.304 21.2945C177.702 21.0853 178.003 20.7518 178.311 20.6276C178.489 20.5426 178.619 20.3792 178.88 20.2092L179.448 19.83C179.626 19.7057 179.886 19.5815 180.064 19.5815C180.153 19.5815 180.153 19.6208 180.153 19.7057C180.153 19.8757 179.975 20.1242 179.715 20.2484H179.708ZM184.619 2.58904C184.445 2.75467 184.286 2.96389 184.14 3.2167C183.961 3.63514 183.831 3.42592 183.393 3.72013C182.955 4.01435 182.694 4.1778 182.386 4.43278C182.078 4.68777 181.599 4.97544 181.249 5.09967C180.941 5.22389 180.989 5.39388 180.592 5.5181C180.242 5.64233 180.112 5.93654 179.893 5.93654C179.852 5.93654 179.804 5.93654 179.763 5.89731C179.674 5.85809 179.633 5.77309 179.633 5.68809C179.633 5.5181 179.852 5.26966 180.03 5.02121C180.29 4.60277 180.338 4.60277 180.469 4.22356C180.599 3.84435 180.599 3.55668 180.907 3.26247C180.996 3.13824 181.037 3.01402 181.037 2.92902V2.7198C181.037 2.59558 181.078 2.47136 181.256 2.38636C181.475 2.26214 181.516 2.13791 181.516 2.00715V1.79793C181.516 1.71294 181.516 1.62794 181.605 1.50372C181.825 1.20951 182.133 1.12451 182.482 1.12451H182.742C183.181 1.20951 183.619 1.20951 184.016 1.33373C184.366 1.41873 184.235 1.50372 184.633 1.54295C184.811 1.58218 184.893 1.75217 184.893 1.96139C184.893 2.17061 184.804 2.46482 184.633 2.58904H184.619Z" fill="#435065"/>
<path d="M194.659 20.085C194.351 20.3334 194.262 20.5427 194.043 20.6277C193.824 20.7127 193.735 20.8369 193.386 21.1311C193.036 21.4253 193.077 21.5495 192.687 21.7587C192.249 21.968 192.379 22.0922 191.851 22.2622C191.454 22.4322 191.283 22.5564 191.016 22.5956C190.577 22.6348 190.358 22.9748 190.009 22.9748H189.571C189.393 22.9748 189.221 22.9748 189.043 23.0598C188.865 23.0991 188.694 23.1448 188.564 23.1448C188.256 23.1448 188.037 23.0598 187.817 22.9356C187.557 22.7656 187.598 22.5172 187.29 22.3929C187.03 22.2687 186.941 21.6411 186.941 21.3468C186.982 21.0984 186.982 21.0134 186.982 20.8892C186.982 20.5557 186.852 20.3008 186.722 20.3008C186.68 20.3008 186.633 20.34 186.591 20.3857C186.331 20.68 186.194 20.6342 185.845 20.9742C185.496 21.2226 185.187 21.5168 184.79 21.7261C184.441 21.9353 184.133 22.2687 183.735 22.3145C183.338 22.3537 183.427 22.5629 182.989 22.6479C182.551 22.7329 181.982 23.2364 181.544 23.2364C181.064 23.2364 180.756 22.9879 180.448 22.7329C180.14 22.3995 180.099 22.3995 179.88 22.1053C179.66 21.896 179.311 21.6018 179.311 21.0984C179.352 20.4315 179.352 20.0915 179.441 19.7581C179.53 19.4246 179.969 18.6728 180.277 18.4178C180.585 18.2086 180.893 17.7509 181.023 17.4567C181.153 17.1625 181.42 17.0382 181.64 16.8683C181.9 16.6983 182.386 16.3648 182.646 16.1164C182.907 15.8679 183.126 15.7372 183.345 15.4887C183.605 15.2403 183.783 15.2403 184.092 14.8611C184.4 14.4819 184.53 14.3184 184.879 14.0634C185.407 13.6842 185.578 13.73 185.975 13.3508C186.372 12.9323 186.591 12.8081 186.852 12.5531C187.112 12.3439 187.55 11.9255 188.078 11.9255C188.605 11.9255 188.735 11.6313 189.084 11.6313C189.434 11.6313 189.612 11.507 190.091 11.507C190.619 11.507 190.749 11.8012 190.968 11.9647C191.317 11.9647 191.317 11.5463 191.584 11.337C192.201 10.8336 192.023 10.9578 192.201 10.6702C192.29 10.5459 192.379 10.4609 192.55 10.4609C192.68 10.4609 192.81 10.5002 193.029 10.5459C193.207 10.5852 193.29 10.7159 193.728 10.7944C194.036 10.8336 194.207 10.9186 194.255 11.0886C194.296 11.1736 194.433 11.3828 194.433 11.592C194.433 11.677 194.433 11.7162 194.392 11.8012C194.303 12.0105 194.351 12.1347 194.132 12.3439L193.735 12.7231L193.166 13.39C192.728 13.8934 192.687 13.9784 192.42 14.1419C192.16 14.3119 191.981 14.7303 191.803 15.018L190.886 16.2733C190.708 16.5217 190.625 16.6917 190.625 16.816V17.0252C190.625 17.1102 190.625 17.2344 190.495 17.4044C190.317 17.6136 190.276 17.8228 190.276 18.032V18.3263C190.276 18.4505 190.276 18.5747 190.187 18.6597C189.927 18.9931 190.057 19.4116 189.927 19.915C189.886 20.0392 189.886 20.1242 189.886 20.2484C189.886 20.6277 190.064 21.0003 190.235 21.0853C190.454 21.2095 190.543 21.3795 190.893 21.543H191.071C191.42 21.543 191.988 21.373 192.208 21.2095C192.687 20.8761 192.735 21.0396 192.954 20.7911C193.214 20.4577 193.303 20.4577 193.653 20.2877C193.961 20.1177 194.002 20.0392 194.18 19.83C194.31 19.66 194.529 19.5816 194.707 19.5816C194.796 19.5816 194.837 19.5816 194.885 19.6208C194.927 19.66 194.974 19.7058 194.974 19.745C194.974 19.8692 194.796 19.9542 194.666 20.0785L194.659 20.085ZM189.838 14.1876C189.441 14.0177 189.578 14.0634 189.269 13.8084C188.961 13.56 188.742 13.56 188.434 13.56C188.256 13.56 188.084 13.475 187.906 13.475C187.776 13.475 187.598 13.5142 187.427 13.645C186.948 13.9392 186.728 13.7692 186.461 14.1026C186.201 14.4361 185.982 14.5603 185.674 14.6911C185.413 14.8153 185.016 15.2795 184.708 15.4037C184.4 15.5737 184.181 15.7829 183.961 16.1556C183.742 16.5348 183.434 16.8225 183.434 17.0775C183.434 17.2867 183.085 17.7444 183.037 18.0843C182.996 18.4178 182.907 18.712 182.907 19.1697C182.907 19.6731 182.907 19.9215 183.256 20.34C183.605 20.7976 183.386 20.6734 183.872 20.9284C183.961 20.9676 184.092 21.0134 184.181 21.0134C184.489 21.0134 184.749 20.8042 185.016 20.7192C185.365 20.595 185.763 20.3857 185.982 20.2158C186.201 20.0458 186.509 19.6273 186.769 19.5489C187.03 19.4639 187.516 19.0062 187.906 18.4178C188.297 17.8294 188.605 17.4567 188.824 17.0775C189.043 16.744 188.824 16.3648 189.352 15.7829C189.53 15.6129 189.53 15.5345 189.53 15.4495C189.53 15.3645 189.53 15.2795 189.619 15.0703C189.749 14.8218 189.927 14.5276 189.927 14.3576C189.927 14.2726 189.927 14.2334 189.838 14.1876Z" fill="#435065"/>
<path d="M209.474 13.0108C209.433 13.0958 209.433 13.135 209.433 13.22C209.433 13.3442 209.474 13.4684 209.474 13.6384C209.474 13.8084 209.433 13.9719 209.213 14.2268C208.953 14.4753 208.734 14.6845 208.556 14.8937C208.248 15.1879 207.987 15.4364 207.857 15.6914C207.638 16.0706 207.378 16.234 207.159 16.234C207.118 16.234 207.029 16.1948 206.981 16.1948C206.892 16.1948 206.892 16.1556 206.892 16.0706C206.892 15.9464 207.022 15.6914 207.022 15.4037C207.022 15.3187 206.981 15.2795 206.981 15.1945C206.981 14.776 207.289 14.3968 207.289 14.1484C207.289 14.0634 207.248 14.0242 207.2 13.9784C206.85 13.645 206.453 13.475 205.796 13.475C205.179 13.475 204.789 13.645 204.303 14.0176L203.467 14.7303C203.207 14.9787 202.988 15.1879 202.81 15.4429C202.632 15.6914 202.412 15.8614 202.193 16.0314C201.974 16.2013 201.666 16.3256 201.317 16.5348C200.659 16.914 200.262 17.3717 199.871 17.7051C199.474 17.9993 199.344 18.1235 199.036 18.9604C198.858 19.3789 198.776 19.8823 198.687 20.34C198.598 20.7192 198.467 21.0918 198.248 21.386C197.721 22.0137 198.248 22.3079 197.591 22.8113C196.933 23.3148 196.536 23.3148 196.016 23.3148C195.495 23.3148 195.707 22.9356 195.18 22.9356C194.961 22.9356 194.742 22.9748 194.611 22.9748C194.433 22.9748 194.303 22.8898 194.262 22.5564C194.262 21.9287 194.481 21.7195 194.481 21.386C194.481 21.0068 194.701 20.3792 195.05 20.255C195.358 20.1307 195.091 19.8757 195.488 19.5031C195.968 19.0454 196.543 18.8754 196.625 18.2478C196.666 17.6201 197.022 17.5809 197.372 17.0774C197.769 16.574 197.461 16.4498 197.899 15.7829C198.378 15.0703 198.646 14.8218 198.776 14.2791C198.865 13.9457 198.954 13.7365 198.954 13.4815C198.954 13.3115 198.824 13.2723 198.693 13.2723C198.344 13.3115 198.166 13.4423 197.817 13.4423C197.378 13.4423 197.2 13.6123 196.981 13.6515C196.803 13.6907 196.673 13.7757 196.584 13.7757C196.543 13.7757 196.495 13.7757 196.495 13.6907C196.495 13.6515 196.803 13.0631 197.111 13.0238C197.372 12.9846 197.858 12.7296 198.118 12.6904C198.735 12.5662 199.474 12.102 199.652 11.9385C200.091 11.4808 200.44 11.2259 201.056 11.2259C201.625 11.2259 201.892 10.9774 202.501 10.9774C202.851 10.9774 202.94 11.1474 202.94 11.3959C202.94 11.5658 202.899 11.7751 202.81 11.9843C202.632 12.4877 202.851 12.7819 202.501 13.2396C202.104 13.658 202.104 14.5799 201.584 15.0376C201.275 15.286 201.015 15.5802 201.015 15.7045C201.015 15.7437 201.056 15.7894 201.193 15.7894C201.892 15.6652 202.159 15.2468 202.638 14.8283L204.392 13.3638C204.83 12.9062 205.049 12.357 205.529 12.2327C206.056 12.1085 206.008 11.3566 206.405 11.3109H206.583C206.761 11.3109 207.022 11.3501 207.241 11.3959C207.501 11.4351 207.768 11.4808 208.028 11.4808H208.289C208.686 11.4808 208.768 11.5201 209.124 11.8601C209.302 12.03 209.433 12.1935 209.474 12.3635C209.515 12.4877 209.515 12.5727 209.515 12.6969C209.515 12.8212 209.515 12.9454 209.474 13.0304V13.0108Z" fill="#435065"/>
<path d="M225.952 12.6381C225.822 12.8866 225.644 13.1808 225.254 13.2266C224.856 13.2658 224.507 13.3966 224.117 13.3966C223.726 13.3966 223.418 13.3116 223.062 13.3116C222.665 13.3116 222.315 13.4816 222.226 13.815C222.137 14.1092 221.699 14.2334 221.48 14.6519C221.261 15.0703 221.083 15.4495 220.822 15.528C220.603 15.5672 220.295 16.3256 220.124 16.5741C219.946 16.8683 219.555 17.326 219.336 17.5352C219.076 17.7836 218.987 17.8686 218.768 18.2478C218.548 18.627 218.288 19.0847 218.069 19.1697C217.809 19.2939 217.761 19.8366 217.501 20.0066C217.281 20.1766 217.151 20.255 217.021 20.5492C216.932 20.8827 216.624 21.3011 216.405 21.5103C216.227 21.7588 216.097 22.223 215.747 22.5172C215.439 22.8114 215.268 22.9356 215.22 23.3541C215.22 23.7333 214.473 24.4852 214.254 24.8186C213.727 25.6555 214.076 25.6162 213.117 26.4923C212.2 27.3292 211.891 28.2903 211.275 28.6238C210.659 28.918 210.837 29.4999 210.049 30.1733C209.083 30.9709 209.789 30.716 208.953 31.3894C208.165 32.0563 208.337 32.3962 207.857 32.6447C207.33 32.8539 207.2 33.1024 206.803 33.73C206.624 33.9785 206.453 34.1484 206.234 34.3184L205.316 35.0311C204.878 35.3645 204.789 35.5345 204.57 35.7437C204.262 36.038 203.912 36.3322 203.385 36.5806C202.816 36.9141 202.727 37.3325 202.159 37.4175C201.632 37.5417 201.94 37.8359 200.844 38.2544C199.748 38.6336 200.228 38.6336 199.269 39.0062C198.303 39.3397 197.995 39.6339 197.604 39.6339C197.077 39.6339 196.379 40.0131 195.892 40.0131C195.762 40.0131 195.673 39.9739 195.584 39.9281C195.543 39.8889 195.454 39.8889 195.406 39.8889C195.276 39.8889 195.098 39.9281 194.927 39.9281C194.707 39.9281 194.488 39.8889 194.228 39.5947C193.701 39.0062 193.31 38.5093 192.913 38.4636C192.564 38.4636 192.255 38.1301 192.255 37.169V36.9991C192.255 35.868 192.954 35.2403 192.954 34.5734C192.995 33.8608 193.742 33.3181 193.872 32.8997C194.221 32.102 194.57 31.9386 195.057 31.4351C195.536 30.8925 195.673 30.4283 196.413 30.2191C197.159 30.0491 197.331 29.7156 197.947 29.6306C198.344 29.5456 198.693 29.4214 198.865 29.4214C198.954 29.4214 198.995 29.4606 199.043 29.5456C199.043 29.8791 198.783 29.8398 198.385 29.9641C197.988 30.0883 197.598 30.631 197.111 30.8009C196.673 30.9709 196.632 30.7617 196.146 31.5986C195.796 32.2262 195.618 32.6447 195.618 33.3116C195.618 33.5208 195.618 33.7692 195.659 34.0634C195.79 35.1945 195.618 34.6519 195.879 35.3188C196.098 35.9464 196.577 35.9072 196.974 36.1949C197.324 36.5283 197.673 36.4041 197.981 36.6983C198.159 36.8225 198.378 36.9467 198.769 36.9467C199.077 36.9467 199.467 36.8618 199.995 36.6983C201.18 36.3649 200.693 36.3191 201.488 36.1556C202.275 35.9856 202.275 35.698 202.803 35.5672C203.2 35.443 203.501 35.1488 203.768 34.9003C203.988 34.6911 204.207 34.6061 204.604 34.2727C204.864 34.1484 205.083 33.8935 205.351 33.6842C205.611 33.475 205.878 33.2658 206.008 33.0566C206.316 32.5989 206.974 32.3047 207.453 31.7163C207.892 31.1736 208.111 31.0494 208.371 30.5852C208.679 30.1275 208.987 30.206 209.248 29.6241C209.467 29.1207 209.556 29.0357 209.994 28.663C210.432 28.3295 210.652 27.8261 211.049 27.5319C211.487 27.2377 211.706 26.6558 212.275 26.0674C212.802 25.5639 212.713 25.3547 213.062 24.8513C213.412 24.3936 213.241 24.3936 213.72 23.9752C213.72 23.9752 214.199 23.1775 214.247 23.1383C214.425 22.7591 214.508 22.4257 214.645 22.2164C214.734 22.1314 214.775 22.0072 214.775 21.9222C214.775 21.8372 214.734 21.798 214.597 21.798C214.117 21.8372 213.542 21.968 213.412 22.2164C213.282 22.4257 212.843 22.6349 212.535 22.6741C212.275 22.7133 211.569 23.0533 211.179 23.0533C210.871 23.0533 210.391 22.9291 210.083 22.9291H209.864C209.556 22.9291 209.248 22.7591 209.165 22.4714C209.124 22.1772 207.981 21.968 207.85 21.5953C207.809 21.5103 207.761 21.4253 207.761 21.3011C207.761 21.0069 207.939 20.6735 207.981 20.425C208.07 20.0916 208.159 19.6731 208.378 19.5489C208.556 19.4247 208.946 19.2155 209.076 18.9212C209.254 18.6728 209.604 17.9994 209.953 17.8752C210.302 17.7509 210.569 17.2867 210.7 16.9533C210.878 16.5741 211.049 16.1556 211.316 16.0314C211.535 15.9072 211.446 15.4887 211.624 15.1553C211.713 14.9853 211.713 14.9069 211.713 14.7761C211.713 14.6061 211.713 14.4819 211.802 14.3969C212.021 14.1484 212.33 13.8085 212.33 13.645C212.33 13.6058 212.289 13.56 212.241 13.5208C212.152 13.4816 212.063 13.4816 211.98 13.4816C211.672 13.4816 211.364 13.6515 211.145 13.73C210.617 13.9392 210.528 13.8542 210.138 14.0242C209.96 14.0634 209.659 14.2334 209.439 14.2334C209.35 14.2334 209.261 14.2334 209.22 14.1092C209.22 13.8608 209.748 13.4816 210.097 13.4816C210.357 13.4816 210.843 13.0239 211.063 12.8931C211.631 12.5989 211.631 12.5139 212.117 12.0955C212.556 11.7163 212.645 11.847 212.816 11.5921C212.994 11.3828 213.165 11.4221 213.473 11.2978C213.823 11.1278 213.604 11.0036 213.912 10.8402C214.131 10.7159 214.35 10.5917 214.658 10.5917C214.747 10.5917 214.877 10.5917 214.966 10.631C215.364 10.6702 215.624 10.7552 215.754 11.0102C215.795 11.0952 215.884 11.1344 215.932 11.1344C216.021 11.1344 216.11 11.0494 216.24 11.0494C216.281 11.0494 216.329 11.0494 216.418 11.0886C216.638 11.1736 216.816 11.4221 216.816 11.677C216.816 11.762 216.775 11.847 216.727 11.9713C216.549 12.3897 216.466 12.5989 216.247 12.8081C216.069 13.0566 215.85 13.2658 215.679 13.645C215.549 14.0242 215.24 14.1877 215.151 14.6519C215.062 15.1161 214.535 15.1095 214.405 15.4495C214.227 15.7437 213.967 15.953 213.706 16.1164C213.487 16.3256 213.268 17.0775 213.049 17.2017C212.871 17.3717 212.521 17.6202 212.48 17.9536C212.439 18.2478 212.391 18.287 212.083 18.6205C211.864 18.9147 211.645 19.1239 211.645 19.3724C211.775 19.7908 212.083 19.8758 212.213 20.1243C212.302 20.3727 212.83 20.5427 213.179 20.5427H213.487C213.706 20.5427 213.967 20.5819 214.234 20.6669C214.275 20.6669 214.323 20.7061 214.364 20.7061C214.583 20.7061 214.843 20.5819 215.151 20.4119C215.549 20.2419 215.549 20.0785 215.898 19.9085C216.247 19.6993 216.336 19.5293 216.644 19.1958C216.953 18.9016 216.994 18.7382 217.432 18.3982C217.781 18.0648 218.001 17.6006 218.268 17.2671C218.795 16.5152 219.103 16.4302 219.274 15.9726C219.494 15.5149 219.624 15.1749 219.891 14.8872C220.199 14.5538 220.37 13.9654 220.548 13.6319C220.726 13.2985 220.809 12.7558 221.028 12.5466C221.206 12.3766 221.377 11.9582 221.685 11.7947C221.945 11.5855 222.343 11.0429 222.603 10.8336C222.911 10.6636 223.302 10.7094 223.658 10.4544C223.788 10.3694 224.007 10.3302 224.274 10.3302C224.623 10.3302 225.062 10.4152 225.281 10.5002C225.589 10.6702 225.849 10.7486 225.849 11.0036C225.849 11.0429 225.849 11.0886 225.808 11.1736C225.719 11.3828 225.678 11.5528 225.678 11.7163C225.678 11.8013 225.678 11.8863 225.767 11.9647C225.856 12.1347 226.027 12.2589 226.027 12.4682C226.027 12.5074 226.027 12.5531 225.986 12.6381H225.952Z" fill="#435065"/>
</g>
<defs>
<clipPath id="clip0_703_3070">
<rect width="226" height="40" fill="white"/>
</clipPath>
</defs>
</svg>
